<svg width="10" height="18" viewBox="0 0 10 18" fill="none" xmlns="http://www.w3.org/2000/svg">
<path d="M4.275 18V15.9C3.325 15.7333 2.54583 15.3708 1.9375 14.8125C1.32917 14.2542 0.891667 13.55 0.625 12.7L2.025 12.125C2.30833 12.925 2.71667 13.5208 3.25 13.9125C3.78333 14.3042 4.425 14.5 5.175 14.5C5.975 14.5 6.63333 14.3 7.15 13.9C7.66667 13.5 7.925 12.95 7.925 12.25C7.925 11.5167 7.69583 10.95 7.2375 10.55C6.77917 10.15 5.91667 9.74167 4.65 9.325C3.45 8.94167 2.55417 8.43333 1.9625 7.8C1.37083 7.16667 1.075 6.375 1.075 5.425C1.075 4.50833 1.37083 3.74167 1.9625 3.125C2.55417 2.50833 3.325 2.15833 4.275 2.075V0H5.775V2.075C6.525 2.15833 7.17083 2.40417 7.7125 2.8125C8.25417 3.22083 8.66667 3.74167 8.95 4.375L7.55 4.975C7.31667 4.44167 7.00417 4.05417 6.6125 3.8125C6.22083 3.57083 5.70833 3.45 5.075 3.45C4.30833 3.45 3.7 3.625 3.25 3.975C2.8 4.325 2.575 4.8 2.575 5.4C2.575 6.03333 2.825 6.54583 3.325 6.9375C3.825 7.32917 4.75 7.73333 6.1 8.15C7.23333 8.5 8.07083 9.00417 8.6125 9.6625C9.15417 10.3208 9.425 11.15 9.425 12.15C9.425 13.2 9.11667 14.0458 8.5 14.6875C7.88333 15.3292 6.975 15.7417 5.775 15.925V18H4.275Z" fill="black"/>
</svg>
