<svg width="273" height="57" viewBox="0 0 273 57" fill="none" xmlns="http://www.w3.org/2000/svg">
<circle cx="40.3681" cy="28.6313" r="28.3686" fill="#FFC629"/>
<path d="M107.112 38.368C107.069 38.9867 106.739 39.4133 106.12 39.648C105.523 39.8827 104.435 40 102.856 40C101.277 40 99.9547 39.8613 98.888 39.584C97.8427 39.2853 97.32 38.912 97.32 38.464C97.32 37.952 98.2693 34.688 100.168 28.672C102.067 22.6347 103.155 19.1573 103.432 18.24C103.539 17.9627 104.392 17.7387 105.992 17.568C107.613 17.376 109.341 17.28 111.176 17.28C113.032 17.28 114.056 17.6 114.248 18.24C118.28 31.6373 120.296 38.4427 120.296 38.656C120.296 38.8693 120.168 39.0827 119.912 39.296C119.315 39.7653 118.131 40 116.36 40C112.584 40 110.653 39.552 110.568 38.656L110.344 36.576H107.272L107.112 38.368ZM109.672 30.496L109.192 24.736H108.488L107.944 30.496H109.672ZM130.833 39.072C130.833 39.3493 130.172 39.5733 128.849 39.744C127.548 39.9147 126.246 40 124.945 40C123.644 40 122.812 39.9253 122.449 39.776C122.086 39.6267 121.905 39.392 121.905 39.072V19.424C121.905 18.8907 122.513 18.4 123.729 17.952C124.966 17.504 126.364 17.28 127.921 17.28C128.476 17.28 128.892 17.3013 129.169 17.344C129.894 17.4507 130.406 17.9093 130.705 18.72L133.777 26.976H133.905V19.424C133.905 18.8907 134.513 18.4 135.729 17.952C136.945 17.504 138.332 17.28 139.889 17.28C141.233 17.28 142.086 17.536 142.449 18.048C142.705 18.4107 142.833 18.7413 142.833 19.04V39.072C142.833 39.3493 142.172 39.5733 140.849 39.744C139.548 39.9147 138.108 40 136.529 40C134.972 40 134.118 39.7973 133.969 39.392L130.993 31.52H130.833V39.072ZM156.221 40.288C154.45 40.288 152.925 40.128 151.645 39.808C150.386 39.4667 149.224 38.8693 148.157 38.016C146.002 36.3307 144.925 33.0987 144.925 28.32C144.925 26.3147 145.213 24.5653 145.789 23.072C146.386 21.5787 147.208 20.3947 148.253 19.52C150.301 17.8133 152.957 16.96 156.221 16.96C157.906 16.96 159.368 17.1093 160.605 17.408C161.864 17.7067 163.048 18.2507 164.157 19.04C166.397 20.6613 167.517 23.7547 167.517 28.32C167.517 32.416 166.504 35.4347 164.477 37.376C162.45 39.3173 159.698 40.288 156.221 40.288ZM155.165 34.816C155.421 35.1147 155.773 35.264 156.221 35.264C156.669 35.264 157.021 35.1147 157.277 34.816C157.533 34.496 157.746 33.8347 157.917 32.832C158.088 31.808 158.173 30.3893 158.173 28.576C158.173 26.7627 158.088 25.3653 157.917 24.384C157.746 23.4027 157.533 22.7627 157.277 22.464C157.021 22.1653 156.669 22.016 156.221 22.016C155.773 22.016 155.421 22.1653 155.165 22.464C154.909 22.7627 154.696 23.4027 154.525 24.384C154.354 25.3653 154.269 26.7627 154.269 28.576C154.269 30.3893 154.354 31.808 154.525 32.832C154.696 33.8347 154.909 34.496 155.165 34.816ZM183.193 39.232C183.193 39.4667 182.531 39.6587 181.209 39.808C179.907 39.936 178.595 40 177.273 40C175.971 40 175.139 39.9467 174.777 39.84C174.435 39.712 174.265 39.5093 174.265 39.232V25.472H169.817C169.582 25.472 169.379 25.1733 169.209 24.576C169.038 23.9787 168.953 23.0933 168.953 21.92C168.953 20.7253 169.081 19.6587 169.337 18.72C169.593 17.76 169.934 17.28 170.361 17.28H187.673C187.993 17.28 188.206 17.5787 188.312 18.176C188.441 18.7733 188.505 19.6373 188.505 20.768C188.505 21.8987 188.387 22.9653 188.153 23.968C187.918 24.9707 187.598 25.472 187.193 25.472H183.193V39.232ZM204.74 39.072C204.74 39.3493 204.09 39.5733 202.788 39.744C201.487 39.9147 200.186 40 198.884 40C197.604 40 196.772 39.936 196.388 39.808C196.004 39.6587 195.812 39.4133 195.812 39.072V33.504C191.588 24.864 189.476 20.1707 189.476 19.424C189.476 18.976 190.191 18.5067 191.62 18.016C193.05 17.5253 194.554 17.28 196.132 17.28C198.159 17.28 199.236 17.8773 199.364 19.072L200.228 27.68H200.58L201.188 19.296C201.231 18.6987 201.988 18.2187 203.46 17.856C204.932 17.472 206.33 17.28 207.652 17.28C208.975 17.28 209.892 17.472 210.404 17.856C210.916 18.24 211.172 18.6453 211.172 19.072C211.172 19.4773 209.028 24.288 204.74 33.504V39.072ZM219.596 36.992C219.596 38.2507 219.308 39.1147 218.732 39.584C218.156 40.0533 217.303 40.288 216.172 40.288C215.063 40.288 214.22 40.0533 213.644 39.584C213.068 39.1147 212.78 38.2507 212.78 36.992C212.78 35.7333 213.068 34.9013 213.644 34.496C214.241 34.0693 215.095 33.856 216.204 33.856C217.313 33.856 218.156 34.0693 218.732 34.496C219.308 34.9013 219.596 35.7333 219.596 36.992ZM230.987 38.368C230.944 38.9867 230.614 39.4133 229.995 39.648C229.398 39.8827 228.31 40 226.731 40C225.152 40 223.83 39.8613 222.763 39.584C221.718 39.2853 221.195 38.912 221.195 38.464C221.195 37.952 222.144 34.688 224.043 28.672C225.942 22.6347 227.03 19.1573 227.307 18.24C227.414 17.9627 228.267 17.7387 229.867 17.568C231.488 17.376 233.216 17.28 235.051 17.28C236.907 17.28 237.931 17.6 238.123 18.24C242.155 31.6373 244.171 38.4427 244.171 38.656C244.171 38.8693 244.043 39.0827 243.787 39.296C243.19 39.7653 242.006 40 240.235 40C236.459 40 234.528 39.552 234.443 38.656L234.219 36.576H231.147L230.987 38.368ZM233.547 30.496L233.067 24.736H232.363L231.819 30.496H233.547ZM250.708 40C250.175 40 249.396 40 248.372 40C247.369 40 246.687 39.9253 246.324 39.776C245.961 39.6267 245.78 39.392 245.78 39.072V18.88C245.78 18.3893 246.431 18.0053 247.732 17.728C249.055 17.4293 250.463 17.28 251.956 17.28C253.449 17.28 254.516 17.472 255.156 17.856C255.796 18.24 256.169 18.6453 256.276 19.072L258.452 27.52H258.74L260.788 19.456C260.937 18.88 261.631 18.3787 262.868 17.952C264.127 17.504 265.503 17.28 266.996 17.28C268.489 17.28 269.588 17.3973 270.292 17.632C271.017 17.8667 271.38 18.1653 271.38 18.528V39.072C271.38 39.3493 270.772 39.5733 269.556 39.744C268.34 39.9147 266.857 40 265.108 40C263.359 40 262.484 39.6907 262.484 39.072C262.484 37.3867 262.665 34.3893 263.028 30.08H262.74L261.076 38.432C261.012 38.752 260.745 38.9867 260.276 39.136C259.828 39.2853 259.145 39.36 258.228 39.36C257.311 39.36 256.745 39.296 256.532 39.168C256.34 39.04 256.212 38.7947 256.148 38.432L254.42 30.08H254.132C254.516 34.4747 254.708 37.472 254.708 39.072C254.708 39.6267 253.375 39.936 250.708 40Z" fill="#171717"/>
<rect width="38.7515" height="6.80846" transform="translate(20.9927 28.7729)" fill="#171717"/>
<rect x="20.9927" y="35.5815" width="4.2411" height="4.8794" fill="#171717"/>
<rect x="55.5029" y="35.5815" width="4.2411" height="4.8794" fill="#171717"/>
<rect x="61.8721" y="31.8086" width="2.12055" height="8.65242" fill="#171717"/>
<rect x="63.9995" y="33.9365" width="2.12764" height="14.7233" transform="rotate(-90 63.9995 33.9365)" fill="#171717"/>
<rect x="80.8364" y="40.4609" width="2.11346" height="23.8864" transform="rotate(180 80.8364 40.4609)" fill="#171717"/>
<rect width="2.12055" height="8.65242" transform="matrix(-1 0 0 1 18.9644 31.8086)" fill="#171717"/>
<rect width="2.12764" height="14.7233" transform="matrix(4.37114e-08 -1 -1 -4.37114e-08 16.8369 33.9365)" fill="#171717"/>
<rect width="2.11346" height="23.8864" transform="matrix(1 8.74228e-08 8.74228e-08 -1 0 40.4609)" fill="#171717"/>
</svg>
