<svg width="64" height="64" viewBox="0 0 64 64" fill="none" xmlns="http://www.w3.org/2000/svg">
<rect width="64" height="64" fill="white"/>
<circle cx="32.2596" cy="32.0049" r="19.5928" fill="#FFC629"/>
<path d="M13.2231 29.0258C13.2127 29.1774 13.1317 29.2819 12.9802 29.3393C12.8339 29.3968 12.5674 29.4255 12.1808 29.4255C11.7941 29.4255 11.4702 29.3916 11.209 29.3237C10.953 29.2505 10.825 29.1591 10.825 29.0494C10.825 28.924 11.0575 28.1246 11.5225 26.6512C11.9875 25.1726 12.2539 24.321 12.3218 24.0963C12.348 24.0284 12.557 23.9735 12.9488 23.9317C13.3459 23.8847 13.7691 23.8612 14.2184 23.8612C14.673 23.8612 14.9238 23.9395 14.9708 24.0963C15.9583 27.3774 16.452 29.0441 16.452 29.0964C16.452 29.1486 16.4207 29.2009 16.358 29.2531C16.2117 29.3681 15.9217 29.4255 15.488 29.4255C14.5633 29.4255 14.0904 29.3158 14.0695 29.0964L14.0147 28.587H13.2623L13.2231 29.0258ZM13.8501 27.0979L13.7325 25.6872H13.5601L13.4269 27.0979H13.8501ZM19.0326 29.1983C19.0326 29.2662 18.8707 29.321 18.5467 29.3628C18.228 29.4046 17.9093 29.4255 17.5906 29.4255C17.2719 29.4255 17.0681 29.4073 16.9793 29.3707C16.8905 29.3341 16.8461 29.2766 16.8461 29.1983V24.3863C16.8461 24.2556 16.995 24.1355 17.2928 24.0258C17.5958 23.916 17.9381 23.8612 18.3195 23.8612C18.4553 23.8612 18.5572 23.8664 18.6251 23.8768C18.8027 23.903 18.9281 24.0153 19.0013 24.2138L19.7537 26.2358H19.785V24.3863C19.785 24.2556 19.9339 24.1355 20.2317 24.0258C20.5295 23.916 20.8691 23.8612 21.2505 23.8612C21.5797 23.8612 21.7887 23.9239 21.8775 24.0493C21.9402 24.1381 21.9716 24.2191 21.9716 24.2922V29.1983C21.9716 29.2662 21.8096 29.321 21.4857 29.3628C21.1669 29.4046 20.8143 29.4255 20.4276 29.4255C20.0462 29.4255 19.8372 29.3759 19.8007 29.2766L19.0718 27.3487H19.0326V29.1983ZM25.2504 29.4961C24.8168 29.4961 24.4432 29.4569 24.1297 29.3785C23.8215 29.2949 23.5367 29.1486 23.2755 28.9396C22.7478 28.5269 22.4839 27.7353 22.4839 26.565C22.4839 26.0739 22.5544 25.6454 22.6955 25.2797C22.8418 24.914 23.043 24.624 23.299 24.4098C23.8006 23.9918 24.451 23.7828 25.2504 23.7828C25.6632 23.7828 26.0211 23.8194 26.3241 23.8925C26.6324 23.9657 26.9223 24.0989 27.194 24.2922C27.7426 24.6893 28.0169 25.4469 28.0169 26.565C28.0169 27.5681 27.7688 28.3074 27.2724 28.7829C26.7761 29.2583 26.1021 29.4961 25.2504 29.4961ZM24.9918 28.1559C25.0545 28.2291 25.1407 28.2656 25.2504 28.2656C25.3601 28.2656 25.4464 28.2291 25.509 28.1559C25.5717 28.0776 25.624 27.9156 25.6658 27.67C25.7076 27.4192 25.7285 27.0718 25.7285 26.6277C25.7285 26.1836 25.7076 25.8414 25.6658 25.601C25.624 25.3607 25.5717 25.2039 25.509 25.1308C25.4464 25.0576 25.3601 25.0211 25.2504 25.0211C25.1407 25.0211 25.0545 25.0576 24.9918 25.1308C24.9291 25.2039 24.8769 25.3607 24.8351 25.601C24.7933 25.8414 24.7724 26.1836 24.7724 26.6277C24.7724 27.0718 24.7933 27.4192 24.8351 27.67C24.8769 27.9156 24.9291 28.0776 24.9918 28.1559ZM31.856 29.2374C31.856 29.2949 31.6941 29.3419 31.3701 29.3785C31.0514 29.4099 30.7301 29.4255 30.4062 29.4255C30.0874 29.4255 29.8837 29.4125 29.7949 29.3864C29.7113 29.355 29.6695 29.3054 29.6695 29.2374V25.8675H28.5801C28.5226 25.8675 28.473 25.7943 28.4312 25.648C28.3894 25.5017 28.3685 25.2849 28.3685 24.9976C28.3685 24.705 28.3998 24.4437 28.4625 24.2138C28.5252 23.9787 28.6088 23.8612 28.7133 23.8612H32.9532C33.0316 23.8612 33.0838 23.9343 33.11 24.0806C33.1413 24.2269 33.157 24.4385 33.157 24.7154C33.157 24.9923 33.1283 25.2536 33.0708 25.4991C33.0133 25.7447 32.9349 25.8675 32.8357 25.8675H31.856V29.2374ZM37.1333 29.1983C37.1333 29.2662 36.9739 29.321 36.6552 29.3628C36.3365 29.4046 36.0178 29.4255 35.6991 29.4255C35.3856 29.4255 35.1818 29.4099 35.0878 29.3785C34.9938 29.3419 34.9467 29.2819 34.9467 29.1983V27.8346C33.9122 25.7186 33.395 24.5691 33.395 24.3863C33.395 24.2765 33.57 24.1616 33.9201 24.0414C34.2701 23.9213 34.6385 23.8612 35.0251 23.8612C35.5215 23.8612 35.7853 24.0075 35.8167 24.3001L36.0283 26.4082H36.1145L36.2634 24.3549C36.2738 24.2086 36.4593 24.0911 36.8198 24.0022C37.1803 23.9082 37.5225 23.8612 37.8465 23.8612C38.1704 23.8612 38.3951 23.9082 38.5205 24.0022C38.6459 24.0963 38.7086 24.1956 38.7086 24.3001C38.7086 24.3993 38.1835 25.5775 37.1333 27.8346V29.1983ZM40.7716 28.6888C40.7716 28.9971 40.7011 29.2087 40.56 29.3237C40.4189 29.4386 40.21 29.4961 39.933 29.4961C39.6614 29.4961 39.455 29.4386 39.3139 29.3237C39.1728 29.2087 39.1023 28.9971 39.1023 28.6888C39.1023 28.3806 39.1728 28.1768 39.3139 28.0776C39.4602 27.9731 39.6692 27.9208 39.9409 27.9208C40.2126 27.9208 40.4189 27.9731 40.56 28.0776C40.7011 28.1768 40.7716 28.3806 40.7716 28.6888ZM43.5614 29.0258C43.5509 29.1774 43.47 29.2819 43.3184 29.3393C43.1722 29.3968 42.9057 29.4255 42.5191 29.4255C42.1324 29.4255 41.8085 29.3916 41.5473 29.3237C41.2912 29.2505 41.1632 29.1591 41.1632 29.0494C41.1632 28.924 41.3957 28.1246 41.8607 26.6512C42.3257 25.1726 42.5922 24.321 42.6601 24.0963C42.6862 24.0284 42.8952 23.9735 43.2871 23.9317C43.6842 23.8847 44.1074 23.8612 44.5567 23.8612C45.0113 23.8612 45.2621 23.9395 45.3091 24.0963C46.2966 27.3774 46.7903 29.0441 46.7903 29.0964C46.7903 29.1486 46.7589 29.2009 46.6962 29.2531C46.55 29.3681 46.26 29.4255 45.8263 29.4255C44.9015 29.4255 44.4287 29.3158 44.4078 29.0964L44.3529 28.587H43.6006L43.5614 29.0258ZM44.1884 27.0979L44.0708 25.6872H43.8984L43.7652 27.0979H44.1884ZM48.3913 29.4255C48.2607 29.4255 48.07 29.4255 47.8192 29.4255C47.5736 29.4255 47.4064 29.4073 47.3176 29.3707C47.2288 29.3341 47.1844 29.2766 47.1844 29.1983V24.253C47.1844 24.1329 47.3437 24.0388 47.6624 23.9709C47.9864 23.8977 48.3312 23.8612 48.6969 23.8612C49.0627 23.8612 49.3239 23.9082 49.4806 24.0022C49.6374 24.0963 49.7288 24.1956 49.7549 24.3001L50.2879 26.3691H50.3584L50.86 24.3941C50.8965 24.253 51.0664 24.1302 51.3694 24.0258C51.6776 23.916 52.0146 23.8612 52.3804 23.8612C52.7461 23.8612 53.0152 23.8899 53.1876 23.9474C53.3652 24.0049 53.4541 24.078 53.4541 24.1668V29.1983C53.4541 29.2662 53.3052 29.321 53.0073 29.3628C52.7095 29.4046 52.3464 29.4255 51.918 29.4255C51.4896 29.4255 51.2753 29.3498 51.2753 29.1983C51.2753 28.7855 51.3198 28.0514 51.4086 26.996H51.338L50.9305 29.0415C50.9148 29.1199 50.8495 29.1774 50.7346 29.2139C50.6249 29.2505 50.4577 29.2688 50.233 29.2688C50.0083 29.2688 49.8699 29.2531 49.8176 29.2218C49.7706 29.1904 49.7393 29.1303 49.7236 29.0415L49.3004 26.996H49.2299C49.3239 28.0723 49.3709 28.8064 49.3709 29.1983C49.3709 29.3341 49.0444 29.4099 48.3913 29.4255Z" fill="#1B2A16"/>
<rect width="26.7638" height="4.70228" transform="translate(18.8777 32.1812)" fill="#1B2A16"/>
<path d="M22.0527 33.839C22.0527 33.7907 22.055 33.7436 22.0594 33.6975C22.0639 33.6515 22.0746 33.6105 22.0914 33.5746C22.1094 33.5376 22.1352 33.5078 22.1689 33.4854C22.2026 33.4629 22.2492 33.4517 22.3086 33.4517C22.367 33.4517 22.413 33.4629 22.4467 33.4854C22.4815 33.5078 22.5073 33.5376 22.5242 33.5746C22.5421 33.6105 22.5534 33.6515 22.5578 33.6975C22.5623 33.7436 22.5646 33.7907 22.5646 33.839V34.3677H23.0259V33.839C23.0259 33.7907 23.0282 33.7436 23.0327 33.6975C23.0372 33.6515 23.0478 33.6105 23.0647 33.5746C23.0826 33.5376 23.1084 33.5078 23.1421 33.4854C23.1758 33.4629 23.2224 33.4517 23.2819 33.4517C23.3402 33.4517 23.3863 33.4629 23.4199 33.4854C23.4547 33.5078 23.4805 33.5376 23.4974 33.5746C23.5153 33.6105 23.5266 33.6515 23.5311 33.6975C23.5355 33.7436 23.5378 33.7907 23.5378 33.839V35.4217C23.5378 35.4711 23.5355 35.5188 23.5311 35.5648C23.5266 35.6109 23.5153 35.6524 23.4974 35.6894C23.4805 35.7253 23.4547 35.7545 23.4199 35.777C23.3863 35.7983 23.3402 35.809 23.2819 35.809C23.2224 35.809 23.1758 35.7983 23.1421 35.777C23.1084 35.7545 23.0826 35.7253 23.0647 35.6894C23.0478 35.6524 23.0372 35.6109 23.0327 35.5648C23.0282 35.5188 23.0259 35.4711 23.0259 35.4217V34.8627H22.5646V35.4217C22.5646 35.4711 22.5623 35.5188 22.5578 35.5648C22.5534 35.6109 22.5421 35.6524 22.5242 35.6894C22.5073 35.7253 22.4815 35.7545 22.4467 35.777C22.413 35.7983 22.367 35.809 22.3086 35.809C22.2492 35.809 22.2026 35.7983 22.1689 35.777C22.1352 35.7545 22.1094 35.7253 22.0914 35.6894C22.0746 35.6524 22.0639 35.6109 22.0594 35.5648C22.055 35.5188 22.0527 35.4711 22.0527 35.4217V33.839ZM23.9015 34.7583C23.9015 34.655 23.9155 34.5675 23.9436 34.4956C23.9716 34.4238 24.0076 34.3637 24.0513 34.3155C24.0962 34.2672 24.1456 34.2296 24.1995 34.2027C24.2545 34.1757 24.3084 34.1555 24.3611 34.1421C24.4139 34.1286 24.4627 34.1202 24.5076 34.1168C24.5537 34.1134 24.5896 34.1117 24.6154 34.1117C24.6412 34.1117 24.6766 34.1134 24.7215 34.1168C24.7664 34.1202 24.8141 34.1286 24.8646 34.1421C24.9162 34.1555 24.9679 34.1757 25.0195 34.2027C25.0723 34.2296 25.1194 34.2672 25.1609 34.3155C25.2036 34.3637 25.2384 34.4238 25.2653 34.4956C25.2923 34.5675 25.3057 34.655 25.3057 34.7583V35.1759C25.3057 35.2792 25.2923 35.3667 25.2653 35.4385C25.2384 35.5104 25.2036 35.5704 25.1609 35.6187C25.1194 35.667 25.0723 35.7046 25.0195 35.7315C24.9679 35.7585 24.9162 35.7787 24.8646 35.7921C24.8141 35.8056 24.7664 35.814 24.7215 35.8174C24.6766 35.8208 24.6412 35.8224 24.6154 35.8224C24.5896 35.8224 24.5537 35.8208 24.5076 35.8174C24.4627 35.814 24.4139 35.8056 24.3611 35.7921C24.3084 35.7787 24.2545 35.7585 24.1995 35.7315C24.1456 35.7046 24.0962 35.667 24.0513 35.6187C24.0076 35.5704 23.9716 35.5104 23.9436 35.4385C23.9155 35.3667 23.9015 35.2792 23.9015 35.1759V34.7583ZM24.4201 35.2937C24.4212 35.3263 24.4291 35.3549 24.4437 35.3796C24.456 35.4021 24.4751 35.4223 24.5009 35.4402C24.5278 35.4571 24.566 35.4655 24.6154 35.4655C24.6625 35.4655 24.6985 35.4571 24.7232 35.4402C24.749 35.4223 24.7681 35.4021 24.7804 35.3796C24.7939 35.3549 24.8017 35.3263 24.804 35.2937V34.6842C24.8017 34.6505 24.7939 34.6197 24.7804 34.5916C24.7681 34.5692 24.749 34.5484 24.7232 34.5293C24.6985 34.5091 24.6625 34.499 24.6154 34.499C24.566 34.499 24.5278 34.5091 24.5009 34.5293C24.4751 34.5484 24.456 34.5692 24.4437 34.5916C24.4291 34.6197 24.4212 34.6505 24.4201 34.6842V35.2937ZM25.6728 33.8255C25.6728 33.7784 25.675 33.7323 25.6795 33.6874C25.6851 33.6425 25.6969 33.6027 25.7149 33.5679C25.7329 33.5331 25.7587 33.505 25.7923 33.4837C25.826 33.4624 25.8715 33.4517 25.9287 33.4517C25.9871 33.4517 26.0331 33.4624 26.0668 33.4837C26.1005 33.505 26.1257 33.5331 26.1426 33.5679C26.1605 33.6027 26.1718 33.6425 26.1762 33.6874C26.1819 33.7323 26.1847 33.7784 26.1847 33.8255V35.4318C26.1847 35.479 26.1819 35.5255 26.1762 35.5716C26.1718 35.6165 26.1605 35.6569 26.1426 35.6928C26.1257 35.7276 26.1005 35.7557 26.0668 35.777C26.0331 35.7983 25.9871 35.809 25.9287 35.809C25.8715 35.809 25.826 35.7983 25.7923 35.777C25.7587 35.7557 25.7329 35.7276 25.7149 35.6928C25.6969 35.6569 25.6851 35.6165 25.6795 35.5716C25.675 35.5255 25.6728 35.479 25.6728 35.4318V33.8255ZM27.956 35.4284C27.956 35.4756 27.9543 35.5222 27.9509 35.5682C27.9476 35.6131 27.9375 35.6535 27.9206 35.6894C27.9038 35.7253 27.8785 35.7545 27.8448 35.777C27.8112 35.7983 27.764 35.809 27.7034 35.809C27.6417 35.809 27.5934 35.7989 27.5586 35.7787C27.5238 35.7573 27.498 35.7321 27.4812 35.7029C27.4643 35.6726 27.4537 35.6412 27.4492 35.6086C27.4458 35.5761 27.4441 35.5486 27.4441 35.5261C27.434 35.5587 27.4194 35.5918 27.4003 35.6254C27.3824 35.6591 27.3588 35.6894 27.3296 35.7164C27.3004 35.7433 27.2651 35.7658 27.2235 35.7837C27.1831 35.8006 27.1354 35.809 27.0804 35.809C27.0187 35.809 26.9569 35.7989 26.8952 35.7787C26.8335 35.7585 26.7779 35.7248 26.7285 35.6776C26.6791 35.6305 26.6387 35.5693 26.6073 35.4941C26.577 35.4178 26.5618 35.3241 26.5618 35.2129V34.7246C26.5618 34.6124 26.577 34.5187 26.6073 34.4434C26.6387 34.3671 26.6791 34.3059 26.7285 34.2599C26.7779 34.2128 26.8335 34.1791 26.8952 34.1589C26.9569 34.1387 27.0187 34.1286 27.0804 34.1286C27.1354 34.1286 27.1831 34.137 27.2235 34.1538C27.2651 34.1707 27.3004 34.1926 27.3296 34.2195C27.3588 34.2464 27.3824 34.2768 27.4003 34.3104C27.4194 34.3441 27.434 34.3778 27.4441 34.4115V33.8356C27.4441 33.7873 27.4464 33.7402 27.4508 33.6942C27.4565 33.647 27.4677 33.6061 27.4845 33.5713C27.5025 33.5353 27.5283 33.5067 27.562 33.4854C27.5968 33.4629 27.6439 33.4517 27.7034 33.4517C27.7595 33.4517 27.8044 33.4629 27.8381 33.4854C27.8718 33.5067 27.897 33.5353 27.9139 33.5713C27.9318 33.6061 27.9431 33.647 27.9476 33.6942C27.9532 33.7402 27.956 33.7873 27.956 33.8356V35.4284ZM27.0804 35.1691C27.0804 35.1995 27.0815 35.2292 27.0838 35.2584C27.086 35.2876 27.0922 35.3139 27.1023 35.3375C27.1124 35.3611 27.127 35.3802 27.1461 35.3948C27.1663 35.4082 27.1938 35.415 27.2286 35.415C27.2724 35.415 27.3077 35.4054 27.3347 35.3864C27.3627 35.3661 27.3846 35.3358 27.4003 35.2954C27.416 35.2539 27.4267 35.2023 27.4323 35.1405C27.4391 35.0777 27.443 35.003 27.4441 34.9166C27.4441 34.8818 27.4407 34.8419 27.434 34.797C27.4284 34.751 27.4177 34.7078 27.402 34.6674C27.3863 34.627 27.3644 34.5927 27.3364 34.5647C27.3083 34.5366 27.2724 34.5226 27.2286 34.5226C27.1938 34.5226 27.1663 34.5299 27.1461 34.5445C27.127 34.5579 27.1124 34.5759 27.1023 34.5984C27.0922 34.6208 27.086 34.6466 27.0838 34.6758C27.0815 34.7039 27.0804 34.7325 27.0804 34.7617V35.1691ZM30.8453 35.809C30.7881 35.809 30.7426 35.7983 30.7089 35.777C30.6752 35.7545 30.6494 35.7253 30.6315 35.6894C30.6135 35.6535 30.6017 35.6131 30.5961 35.5682C30.5916 35.5222 30.5894 35.4756 30.5894 35.4284V34.7617C30.5894 34.7314 30.5877 34.7016 30.5843 34.6724C30.5821 34.6433 30.5759 34.6174 30.5658 34.595C30.5557 34.5725 30.5405 34.5546 30.5203 34.5411C30.5013 34.5265 30.4749 34.5192 30.4412 34.5192C30.3963 34.5192 30.3598 34.5344 30.3318 34.5647C30.3037 34.595 30.2812 34.6365 30.2644 34.6893C30.2487 34.7409 30.2375 34.8021 30.2307 34.8728C30.2251 34.9435 30.2223 35.0199 30.2223 35.1018V35.4284C30.2223 35.4756 30.2195 35.5222 30.2139 35.5682C30.2094 35.6131 30.1982 35.6535 30.1802 35.6894C30.1634 35.7253 30.1381 35.7545 30.1045 35.777C30.0708 35.7983 30.0248 35.809 29.9664 35.809C29.908 35.809 29.862 35.7983 29.8283 35.777C29.7946 35.7545 29.7688 35.7253 29.7509 35.6894C29.734 35.6535 29.7228 35.6131 29.7172 35.5682C29.7127 35.5222 29.7105 35.4756 29.7105 35.4284V34.5057C29.7105 34.4586 29.7121 34.4126 29.7155 34.3677C29.72 34.3217 29.7307 34.2807 29.7475 34.2448C29.7643 34.2088 29.7896 34.1802 29.8233 34.1589C29.8581 34.1364 29.9058 34.1252 29.9664 34.1252C30.0281 34.1252 30.0758 34.1359 30.1095 34.1572C30.1443 34.1774 30.1701 34.2027 30.187 34.233C30.2038 34.2622 30.2139 34.293 30.2173 34.3256C30.2206 34.3581 30.2223 34.3856 30.2223 34.4081C30.2324 34.3755 30.2481 34.3424 30.2695 34.3087C30.2919 34.2751 30.32 34.2448 30.3536 34.2178C30.3873 34.1909 30.426 34.169 30.4698 34.1522C30.5136 34.1342 30.5624 34.1252 30.6163 34.1252C30.6904 34.1252 30.7622 34.1432 30.8318 34.1791C30.9014 34.215 30.9609 34.2734 31.0103 34.3542C31.0272 34.316 31.0518 34.2829 31.0844 34.2549C31.117 34.2257 31.154 34.2015 31.1955 34.1825C31.2371 34.1634 31.2814 34.1493 31.3285 34.1404C31.3757 34.1303 31.4223 34.1252 31.4683 34.1252C31.53 34.1252 31.5918 34.1353 31.6535 34.1555C31.7152 34.1757 31.7708 34.2094 31.8202 34.2565C31.8696 34.3037 31.9094 34.3654 31.9397 34.4418C31.9712 34.517 31.9869 34.6101 31.9869 34.7213V35.4284C31.9869 35.4756 31.9841 35.5222 31.9785 35.5682C31.9729 35.6131 31.9611 35.6535 31.9431 35.6894C31.9252 35.7253 31.8988 35.7545 31.864 35.777C31.8303 35.7983 31.7848 35.809 31.7276 35.809C31.6692 35.809 31.6226 35.7983 31.5878 35.777C31.5542 35.7545 31.5283 35.7253 31.5104 35.6894C31.4924 35.6535 31.4806 35.6131 31.475 35.5682C31.4705 35.5222 31.4683 35.4756 31.4683 35.4284V34.7617C31.4683 34.7314 31.4666 34.7016 31.4632 34.6724C31.4599 34.6433 31.4531 34.6174 31.443 34.595C31.4329 34.5725 31.4178 34.5546 31.3976 34.5411C31.3774 34.5265 31.3504 34.5192 31.3168 34.5192C31.2808 34.5192 31.25 34.5304 31.2242 34.5529C31.1995 34.5753 31.1787 34.6062 31.1619 34.6455C31.145 34.6848 31.1321 34.7319 31.1231 34.7869C31.1141 34.8408 31.108 34.8997 31.1046 34.9637V35.4284C31.1046 35.4756 31.1018 35.5222 31.0962 35.5682C31.0917 35.6131 31.0805 35.6535 31.0625 35.6894C31.0445 35.7253 31.0182 35.7545 30.9834 35.777C30.9497 35.7983 30.9037 35.809 30.8453 35.809ZM32.5728 36.4825C32.4449 36.4825 32.354 36.464 32.3001 36.4269C32.2462 36.391 32.2193 36.3377 32.2193 36.267C32.2193 36.2322 32.2237 36.203 32.2327 36.1794C32.2428 36.1558 32.2563 36.1367 32.2731 36.1222C32.29 36.1076 32.3091 36.0969 32.3304 36.0902C32.3528 36.0846 32.3764 36.0817 32.4011 36.0817C32.4179 36.0817 32.4337 36.0823 32.4482 36.0834C32.4628 36.0846 32.4752 36.0851 32.4853 36.0851C32.5066 36.0851 32.5268 36.0722 32.5459 36.0464C32.5661 36.0217 32.5852 35.9903 32.6031 35.9521C32.6222 35.9139 32.6413 35.873 32.6604 35.8292C32.6795 35.7854 32.6986 35.745 32.7176 35.7079L32.6907 35.6406C32.6582 35.5587 32.6239 35.4728 32.588 35.383C32.5521 35.2921 32.5162 35.2006 32.4802 35.1085C32.4454 35.0154 32.4106 34.9228 32.3758 34.8307C32.3422 34.7387 32.3113 34.6494 32.2832 34.563C32.2709 34.5271 32.2602 34.4917 32.2512 34.4569C32.2434 34.4221 32.2395 34.3879 32.2395 34.3542C32.2395 34.3217 32.2462 34.2913 32.2597 34.2633C32.2731 34.2352 32.2917 34.2111 32.3152 34.1909C32.3388 34.1707 32.3657 34.155 32.396 34.1437C32.4275 34.1314 32.4606 34.1252 32.4954 34.1252C32.5268 34.1252 32.5554 34.132 32.5813 34.1454C32.6082 34.1589 32.6318 34.1774 32.652 34.201C32.6733 34.2246 32.6918 34.2515 32.7075 34.2818C32.7233 34.3121 32.7367 34.3441 32.748 34.3778L32.9736 35.0883L33.1891 34.3778C33.1992 34.3463 33.2121 34.3149 33.2278 34.2835C33.2435 34.2521 33.2621 34.2246 33.2834 34.201C33.3047 34.1763 33.3288 34.1566 33.3558 34.1421C33.3827 34.1263 33.4125 34.1185 33.445 34.1185C33.4776 34.1185 33.5084 34.1247 33.5376 34.137C33.5679 34.1493 33.5938 34.1667 33.6151 34.1892C33.6375 34.2105 33.6549 34.2363 33.6673 34.2667C33.6808 34.297 33.6875 34.3295 33.6875 34.3643C33.6875 34.398 33.683 34.4317 33.674 34.4653C33.6662 34.4979 33.6561 34.5304 33.6437 34.563L33.2396 35.6339C33.216 35.6945 33.1902 35.7573 33.1622 35.8224C33.1352 35.8887 33.1055 35.9532 33.0729 36.0161C33.0404 36.0789 33.0056 36.1384 32.9685 36.1946C32.9315 36.2507 32.8922 36.3001 32.8507 36.3427C32.8091 36.3854 32.7648 36.4191 32.7176 36.4438C32.6716 36.4696 32.6234 36.4825 32.5728 36.4825ZM35.5059 34.1252V33.8289C35.5059 33.7817 35.5082 33.7357 35.5127 33.6908C35.5183 33.6459 35.5301 33.6061 35.548 33.5713C35.566 33.5353 35.5918 33.5067 35.6255 33.4854C35.6592 33.4629 35.7046 33.4517 35.7619 33.4517C35.818 33.4517 35.8629 33.4629 35.8966 33.4854C35.9303 33.5067 35.9555 33.5353 35.9724 33.5713C35.9903 33.6061 36.0015 33.6459 36.006 33.6908C36.0116 33.7357 36.0144 33.7817 36.0144 33.8289V34.1252H36.1525C36.1817 34.1252 36.2109 34.1269 36.2401 34.1303C36.2693 34.1325 36.2951 34.1404 36.3175 34.1538C36.3411 34.1673 36.3596 34.1875 36.3731 34.2145C36.3877 34.2414 36.395 34.279 36.395 34.3273C36.395 34.3733 36.3877 34.4098 36.3731 34.4367C36.3596 34.4637 36.3411 34.4839 36.3175 34.4973C36.2951 34.5108 36.2693 34.5198 36.2401 34.5243C36.2109 34.5276 36.1817 34.5293 36.1525 34.5293H36.0144V35.1186C36.0144 35.1411 36.015 35.1652 36.0161 35.191C36.0184 35.2157 36.0245 35.2387 36.0347 35.2601C36.0448 35.2814 36.0599 35.2994 36.0801 35.3139C36.1003 35.3274 36.1289 35.3342 36.166 35.3342C36.2064 35.3342 36.2406 35.3375 36.2687 35.3443C36.2979 35.3499 36.3215 35.3605 36.3394 35.3762C36.3585 35.392 36.3725 35.4139 36.3815 35.4419C36.3905 35.47 36.395 35.5059 36.395 35.5497C36.395 35.5946 36.3843 35.6333 36.363 35.6659C36.3428 35.6984 36.3153 35.7253 36.2805 35.7467C36.2457 35.768 36.2053 35.7837 36.1592 35.7938C36.1132 35.8039 36.065 35.809 36.0144 35.809C35.9347 35.809 35.8663 35.8006 35.809 35.7837C35.7529 35.7669 35.7058 35.7433 35.6676 35.713C35.6305 35.6816 35.6008 35.6445 35.5784 35.6019C35.557 35.5581 35.5407 35.5093 35.5295 35.4554C35.5194 35.4015 35.5127 35.3437 35.5093 35.282C35.5071 35.2191 35.5059 35.1534 35.5059 35.085V34.5293H35.4117C35.3825 34.5293 35.3533 34.5276 35.3241 34.5243C35.296 34.5198 35.2708 34.5108 35.2483 34.4973C35.2259 34.4839 35.2074 34.4637 35.1928 34.4367C35.1793 34.4098 35.1726 34.3733 35.1726 34.3273C35.1726 34.279 35.1793 34.2414 35.1928 34.2145C35.2074 34.1875 35.2259 34.1673 35.2483 34.1538C35.2708 34.1404 35.296 34.1325 35.3241 34.1303C35.3533 34.1269 35.3825 34.1252 35.4117 34.1252H35.5059ZM38.072 35.4284C38.072 35.4756 38.0703 35.5222 38.0669 35.5682C38.0636 35.6131 38.0535 35.6535 38.0366 35.6894C38.0198 35.7253 37.9945 35.7545 37.9609 35.777C37.9272 35.7983 37.8801 35.809 37.8194 35.809C37.7577 35.809 37.7094 35.7989 37.6746 35.7787C37.6398 35.7573 37.614 35.7321 37.5972 35.7029C37.5803 35.6726 37.5697 35.6412 37.5652 35.6086C37.5618 35.5761 37.5601 35.5486 37.5601 35.5261C37.55 35.5587 37.5354 35.5918 37.5164 35.6254C37.4984 35.6591 37.4748 35.6894 37.4456 35.7164C37.4165 35.7433 37.3811 35.7658 37.3396 35.7837C37.2992 35.8006 37.2514 35.809 37.1964 35.809C37.1347 35.809 37.073 35.7989 37.0112 35.7787C36.9495 35.7585 36.8939 35.7248 36.8445 35.6776C36.7951 35.6305 36.7547 35.5693 36.7233 35.4941C36.693 35.4178 36.6778 35.3241 36.6778 35.2129V34.7246C36.6778 34.6124 36.693 34.5187 36.7233 34.4434C36.7547 34.3671 36.7951 34.3059 36.8445 34.2599C36.8939 34.2128 36.9495 34.1791 37.0112 34.1589C37.073 34.1387 37.1347 34.1286 37.1964 34.1286C37.2514 34.1286 37.2992 34.137 37.3396 34.1538C37.3811 34.1707 37.4165 34.1926 37.4456 34.2195C37.4748 34.2464 37.4984 34.2768 37.5164 34.3104C37.5354 34.3441 37.55 34.3778 37.5601 34.4115C37.5601 34.3553 37.568 34.3087 37.5837 34.2717C37.5994 34.2347 37.6196 34.2055 37.6443 34.1841C37.669 34.1617 37.6965 34.1465 37.7268 34.1387C37.7583 34.1297 37.7891 34.1252 37.8194 34.1252C37.8756 34.1252 37.9205 34.1364 37.9541 34.1589C37.9878 34.1802 38.0131 34.2088 38.0299 34.2448C38.0479 34.2796 38.0591 34.3205 38.0636 34.3677C38.0692 34.4137 38.072 34.4608 38.072 34.5091V35.4284ZM37.1964 35.1691C37.1964 35.1995 37.1976 35.2292 37.1998 35.2584C37.2021 35.2876 37.2082 35.3139 37.2183 35.3375C37.2284 35.3611 37.243 35.3802 37.2621 35.3948C37.2823 35.4082 37.3098 35.415 37.3446 35.415C37.3884 35.415 37.4238 35.4054 37.4507 35.3864C37.4788 35.3661 37.5006 35.3358 37.5164 35.2954C37.5321 35.2539 37.5427 35.2023 37.5483 35.1405C37.5551 35.0777 37.559 35.003 37.5601 34.9166C37.5601 34.8818 37.5568 34.8419 37.55 34.797C37.5444 34.751 37.5338 34.7078 37.518 34.6674C37.5023 34.627 37.4804 34.5927 37.4524 34.5647C37.4243 34.5366 37.3884 34.5226 37.3446 34.5226C37.3098 34.5226 37.2823 34.5299 37.2621 34.5445C37.243 34.5579 37.2284 34.5759 37.2183 34.5984C37.2082 34.6208 37.2021 34.6466 37.1998 34.6758C37.1976 34.7039 37.1964 34.7325 37.1964 34.7617V35.1691ZM38.4559 33.8356C38.4559 33.7873 38.4581 33.7402 38.4626 33.6942C38.4682 33.647 38.4795 33.6061 38.4963 33.5713C38.5143 33.5353 38.5401 33.5067 38.5738 33.4854C38.6074 33.4629 38.6523 33.4517 38.7085 33.4517C38.7668 33.4517 38.8134 33.4629 38.8482 33.4854C38.883 33.5067 38.9088 33.5353 38.9257 33.5713C38.9436 33.6061 38.9549 33.647 38.9593 33.6942C38.965 33.7402 38.9678 33.7873 38.9678 33.8356V34.4115C38.9779 34.3778 38.9919 34.3441 39.0099 34.3104C39.0289 34.2768 39.0531 34.2464 39.0823 34.2195C39.1114 34.1926 39.1462 34.1707 39.1866 34.1538C39.2282 34.137 39.2764 34.1286 39.3315 34.1286C39.3932 34.1286 39.4549 34.1387 39.5167 34.1589C39.5784 34.1791 39.634 34.2128 39.6834 34.2599C39.7327 34.3059 39.7726 34.3671 39.8029 34.4434C39.8343 34.5187 39.85 34.6124 39.85 34.7246V35.2129C39.85 35.3241 39.8343 35.4178 39.8029 35.4941C39.7726 35.5693 39.7327 35.6305 39.6834 35.6776C39.634 35.7248 39.5784 35.7585 39.5167 35.7787C39.4549 35.7989 39.3932 35.809 39.3315 35.809C39.2764 35.809 39.2282 35.8006 39.1866 35.7837C39.1462 35.7658 39.1114 35.7433 39.0823 35.7164C39.0531 35.6894 39.0289 35.6591 39.0099 35.6254C38.9919 35.5918 38.9779 35.5587 38.9678 35.5261C38.9678 35.5486 38.9655 35.5761 38.961 35.6086C38.9577 35.6412 38.9476 35.6726 38.9307 35.7029C38.9139 35.7321 38.8881 35.7573 38.8533 35.7787C38.8185 35.7989 38.7702 35.809 38.7085 35.809C38.6478 35.809 38.6007 35.7983 38.567 35.777C38.5333 35.7545 38.5081 35.7253 38.4913 35.6894C38.4744 35.6535 38.4643 35.6131 38.4609 35.5682C38.4576 35.5222 38.4559 35.4756 38.4559 35.4284V33.8356ZM39.3315 34.7617C39.3315 34.7325 39.3303 34.7039 39.3281 34.6758C39.3258 34.6466 39.3197 34.6208 39.3096 34.5984C39.2995 34.5759 39.2843 34.5579 39.2641 34.5445C39.245 34.5299 39.2181 34.5226 39.1833 34.5226C39.1395 34.5226 39.1036 34.5366 39.0755 34.5647C39.0475 34.5927 39.0256 34.627 39.0099 34.6674C38.9941 34.7078 38.9829 34.751 38.9762 34.797C38.9706 34.8419 38.9678 34.8818 38.9678 34.9166C38.9689 35.003 38.9722 35.0777 38.9779 35.1405C38.9846 35.2023 38.9958 35.2539 39.0115 35.2954C39.0273 35.3358 39.0486 35.3661 39.0755 35.3864C39.1036 35.4054 39.1395 35.415 39.1833 35.415C39.2181 35.415 39.245 35.4082 39.2641 35.3948C39.2843 35.3802 39.2995 35.3611 39.3096 35.3375C39.3197 35.3139 39.3258 35.2876 39.3281 35.2584C39.3303 35.2292 39.3315 35.1995 39.3315 35.1691V34.7617ZM40.244 33.8255C40.244 33.7784 40.2463 33.7323 40.2508 33.6874C40.2564 33.6425 40.2682 33.6027 40.2861 33.5679C40.3041 33.5331 40.3299 33.505 40.3636 33.4837C40.3973 33.4624 40.4427 33.4517 40.5 33.4517C40.5583 33.4517 40.6044 33.4624 40.638 33.4837C40.6717 33.505 40.697 33.5331 40.7138 33.5679C40.7318 33.6027 40.743 33.6425 40.7475 33.6874C40.7531 33.7323 40.7559 33.7784 40.7559 33.8255V35.4318C40.7559 35.479 40.7531 35.5255 40.7475 35.5716C40.743 35.6165 40.7318 35.6569 40.7138 35.6928C40.697 35.7276 40.6717 35.7557 40.638 35.777C40.6044 35.7983 40.5583 35.809 40.5 35.809C40.4427 35.809 40.3973 35.7983 40.3636 35.777C40.3299 35.7557 40.3041 35.7276 40.2861 35.6928C40.2682 35.6569 40.2564 35.6165 40.2508 35.5716C40.2463 35.5255 40.244 35.479 40.244 35.4318V33.8255ZM42.571 34.8492C42.571 34.8672 42.5699 34.8885 42.5676 34.9132C42.5654 34.9368 42.5564 34.9598 42.5407 34.9822C42.5261 35.0036 42.5025 35.0221 42.47 35.0378C42.4374 35.0535 42.3914 35.0614 42.3319 35.0614H41.6618V35.223C41.6618 35.25 41.6651 35.278 41.6719 35.3072C41.6786 35.3364 41.6898 35.3633 41.7056 35.388C41.7224 35.4127 41.7443 35.4329 41.7712 35.4487C41.7982 35.4644 41.8313 35.4722 41.8706 35.4722C41.9155 35.4722 41.9497 35.4672 41.9733 35.4571C41.998 35.4458 42.017 35.4324 42.0305 35.4167C42.0451 35.4009 42.058 35.3841 42.0692 35.3661C42.0805 35.3482 42.0951 35.3313 42.113 35.3156C42.1321 35.2999 42.1579 35.287 42.1905 35.2769C42.2241 35.2657 42.2702 35.2601 42.3285 35.2601C42.3566 35.2601 42.3835 35.2623 42.4094 35.2668C42.4363 35.2713 42.4599 35.2797 42.4801 35.2921C42.5003 35.3044 42.5166 35.3218 42.5289 35.3443C42.5413 35.3656 42.5474 35.3936 42.5474 35.4284C42.5474 35.5014 42.5244 35.5626 42.4784 35.612C42.4324 35.6602 42.3746 35.699 42.305 35.7282C42.2354 35.7573 42.1596 35.7781 42.0777 35.7905C41.9968 35.8028 41.9211 35.809 41.8504 35.809C41.7572 35.8079 41.6685 35.7961 41.5843 35.7736C41.5001 35.7512 41.4255 35.7152 41.3604 35.6659C41.2964 35.6165 41.2453 35.5519 41.2072 35.4722C41.169 35.3925 41.1499 35.2949 41.1499 35.1792V34.7852C41.1499 34.6786 41.1623 34.5882 41.187 34.5142C41.2128 34.4401 41.2459 34.3783 41.2863 34.329C41.3267 34.2796 41.3722 34.2414 41.4227 34.2145C41.4732 34.1864 41.5243 34.1656 41.5759 34.1522C41.6275 34.1387 41.6764 34.1303 41.7224 34.1269C41.7695 34.1235 41.8099 34.1218 41.8436 34.1218C41.957 34.1218 42.0535 34.132 42.1332 34.1522C42.214 34.1724 42.2814 34.1987 42.3353 34.2313C42.3892 34.2638 42.4318 34.3014 42.4632 34.3441C42.4947 34.3868 42.5182 34.4311 42.534 34.4771C42.5497 34.522 42.5598 34.568 42.5643 34.6152C42.5688 34.6612 42.571 34.7044 42.571 34.7448V34.8492ZM41.6618 34.8088H42.0827C42.0827 34.7561 42.081 34.7095 42.0777 34.6691C42.0754 34.6275 42.067 34.5927 42.0524 34.5647C42.0389 34.5366 42.017 34.5153 41.9867 34.5007C41.9576 34.4861 41.9155 34.4788 41.8605 34.4788C41.8144 34.4788 41.778 34.4861 41.751 34.5007C41.7252 34.5153 41.7056 34.5338 41.6921 34.5563C41.6786 34.5776 41.6702 34.6006 41.6668 34.6253C41.6635 34.65 41.6618 34.6719 41.6618 34.691V34.8088Z" fill="white"/>
<rect x="18.8777" y="36.8835" width="2.92913" height="3.36997" fill="#1B2A16"/>
<rect x="42.7124" y="36.8835" width="2.92913" height="3.36997" fill="#1B2A16"/>
<rect x="47.1108" y="34.2776" width="1.46456" height="5.97581" fill="#1B2A16"/>
<rect x="48.5803" y="35.7471" width="1.46946" height="10.1687" transform="rotate(-90 48.5803 35.7471)" fill="#1B2A16"/>
<rect x="60.2087" y="40.2534" width="1.45966" height="16.4972" transform="rotate(180 60.2087 40.2534)" fill="#1B2A16"/>
<rect width="1.46456" height="5.97581" transform="matrix(-1 0 0 1 17.4768 34.2776)" fill="#1B2A16"/>
<rect width="1.46946" height="10.1687" transform="matrix(4.37114e-08 -1 -1 -4.37114e-08 16.0073 35.7471)" fill="#1B2A16"/>
<rect width="1.45966" height="16.4972" transform="matrix(1 8.74228e-08 8.74228e-08 -1 4.37891 40.2534)" fill="#1B2A16"/>
</svg>
