<svg width="20" height="20" viewBox="0 0 20 20" fill="none" xmlns="http://www.w3.org/2000/svg">
<path d="M13.225 10L8.9 5.675L7.85 6.75L11.1 10L7.85 13.25L8.9 14.325L13.225 10ZM20 10C20 11.3667 19.7375 12.6583 19.2125 13.875C18.6875 15.0917 17.9708 16.1542 17.0625 17.0625C16.1542 17.9708 15.0917 18.6875 13.875 19.2125C12.6583 19.7375 11.3667 20 10 20C8.61667 20 7.31667 19.7375 6.1 19.2125C4.88333 18.6875 3.825 17.9708 2.925 17.0625C2.025 16.1542 1.3125 15.0917 0.7875 13.875C0.2625 12.6583 -3.77375e-07 11.3667 -4.37114e-07 10C-4.97581e-07 8.61667 0.262499 7.31667 0.787499 6.1C1.3125 4.88333 2.025 3.825 2.925 2.925C3.825 2.025 4.88333 1.3125 6.1 0.7875C7.31667 0.262499 8.61667 -3.76646e-07 10 -4.37114e-07C11.3667 -4.96853e-07 12.6583 0.262498 13.875 0.7875C15.0917 1.3125 16.1542 2.025 17.0625 2.925C17.9708 3.825 18.6875 4.88333 19.2125 6.1C19.7375 7.31667 20 8.61667 20 10Z" fill="#C3D2DA"/>
</svg>
