<svg width="28" height="28" viewBox="0 0 28 28" fill="none" xmlns="http://www.w3.org/2000/svg">
<path d="M14 18.3L19.7667 12.5333L18.3333 11.1333L14 15.4667L9.66667 11.1333L8.23333 12.5333L14 18.3ZM14 27.3333C12.1778 27.3333 10.4556 26.9833 8.83333 26.2833C7.21111 25.5833 5.79445 24.6278 4.58333 23.4167C3.37222 22.2055 2.41667 20.7889 1.71667 19.1667C1.01667 17.5444 0.666668 15.8222 0.666668 14C0.666668 12.1555 1.01667 10.4222 1.71667 8.79999C2.41667 7.17777 3.37222 5.76666 4.58333 4.56666C5.79445 3.36666 7.21111 2.41666 8.83333 1.71666C10.4556 1.01666 12.1778 0.666656 14 0.666656C15.8444 0.666656 17.5778 1.01666 19.2 1.71666C20.8222 2.41666 22.2333 3.36666 23.4333 4.56666C24.6333 5.76666 25.5833 7.17777 26.2833 8.79999C26.9833 10.4222 27.3333 12.1555 27.3333 14C27.3333 15.8222 26.9833 17.5444 26.2833 19.1667C25.5833 20.7889 24.6333 22.2055 23.4333 23.4167C22.2333 24.6278 20.8222 25.5833 19.2 26.2833C17.5778 26.9833 15.8444 27.3333 14 27.3333Z" fill="black"/>
</svg>
