<svg width="20" height="20" viewBox="0 0 20 20" fill="none" xmlns="http://www.w3.org/2000/svg">
<path d="M6.775 10L11.1 14.325L12.15 13.25L8.9 10L12.15 6.75L11.1 5.675L6.775 10ZM1.19249e-07 10C1.02951e-07 8.63333 0.262499 7.34167 0.7875 6.125C1.3125 4.90833 2.02917 3.84583 2.9375 2.9375C3.84583 2.02917 4.90833 1.3125 6.125 0.7875C7.34167 0.2625 8.63333 1.35546e-07 10 1.19249e-07C11.3833 1.02753e-07 12.6833 0.2625 13.9 0.7875C15.1167 1.3125 16.175 2.02917 17.075 2.9375C17.975 3.84583 18.6875 4.90833 19.2125 6.125C19.7375 7.34167 20 8.63333 20 10C20 11.3833 19.7375 12.6833 19.2125 13.9C18.6875 15.1167 17.975 16.175 17.075 17.075C16.175 17.975 15.1167 18.6875 13.9 19.2125C12.6833 19.7375 11.3833 20 10 20C8.63333 20 7.34167 19.7375 6.125 19.2125C4.90833 18.6875 3.84583 17.975 2.9375 17.075C2.02917 16.175 1.3125 15.1167 0.787501 13.9C0.262499 12.6833 1.35745e-07 11.3833 1.19249e-07 10Z" fill="#C2C1C1"/>
</svg>
