<svg width="961" height="61" viewBox="0 0 961 61" fill="none" xmlns="http://www.w3.org/2000/svg">
<path d="M55.2812 51.3438C55.2812 52.8229 54.4271 54.1771 52.7188 55.4062C51.0312 56.6562 48.9583 57.2812 46.5 57.2812C45.6042 57.2812 44.7188 57.1875 43.8438 57C42.9896 56.8333 42.0729 56.5521 41.0938 56.1562C39.0521 55.3021 37.7604 54.7292 37.2188 54.4375C36.3646 53.9792 35.5625 53.4375 34.8125 52.8125C33.5208 53.1667 32.2917 53.4375 31.125 53.625C29.9583 53.8125 28.6354 53.9062 27.1562 53.9062C23.6146 53.9062 20.3958 53.4583 17.5 52.5625C13.7708 51.3958 10.8646 49.5729 8.78125 47.0938C6.26042 44.0729 5 40.1354 5 35.2812V18.5C5 16.9583 4.3125 15.7292 2.9375 14.8125C1.58333 13.875 0.90625 12.9688 0.90625 12.0938C0.90625 8.94792 4.9375 7.375 13 7.375C17.4167 7.375 20.5938 7.69792 22.5312 8.34375C24.7604 9.09375 25.875 10.3854 25.875 12.2188C25.875 13.1979 25.0417 14.1146 23.375 14.9688C21.7083 15.8229 20.875 16.9062 20.875 18.2188V35.4062C20.875 38.3646 21.8438 40.6562 23.7812 42.2812C25.3854 43.6146 27.2396 44.2812 29.3438 44.2812C31.3438 44.2812 33.125 43.8125 34.6875 42.875C36.875 41.5625 37.9688 39.625 37.9688 37.0625C37.9688 35.2708 37.2396 33.7604 35.7812 32.5312C34.3229 31.3021 33.5938 29.7917 33.5938 28V18.5C33.5938 16.9583 32.9062 15.75 31.5312 14.875C30.1771 13.9792 29.5 13.0521 29.5 12.0938C29.5 10.3021 30.4583 9.07292 32.375 8.40625C34.2917 7.71875 37.3646 7.375 41.5938 7.375C45.9271 7.375 49.1562 7.75 51.2812 8.5C53.4062 9.22917 54.4688 10.4688 54.4688 12.2188C54.4688 13.1979 53.6354 14.1146 51.9688 14.9688C50.3021 15.8229 49.4688 16.9062 49.4688 18.2188V35C49.4688 37.6042 49.0417 39.7812 48.1875 41.5312C47.625 42.6771 46.8438 43.6875 45.8438 44.5625C46.8854 46.5 48.3021 47.75 50.0938 48.3125C51.3229 48.5417 52.5521 48.7708 53.7812 49C54.3438 49.1875 54.7292 49.4792 54.9375 49.875C55.1667 50.2708 55.2812 50.7604 55.2812 51.3438ZM124.938 16.9375C124.938 18.125 124.094 19.1146 122.406 19.9062C121.198 20.4688 119.792 20.8542 118.188 21.0625C116.604 21.25 115.229 21.3438 114.062 21.3438C112.438 21.3438 111.323 21.1042 110.719 20.625C110.135 20.1458 109.844 19.3646 109.844 18.2812C109.844 18.0938 109.844 17.9062 109.844 17.7188C109.906 17.2396 109.948 16.875 109.969 16.625C110.073 15.7292 109.583 15.0833 108.5 14.6875C107.729 14.4167 106.75 14.2812 105.562 14.2812L105.594 34.8438C105.594 39.5938 104.49 43.5104 102.281 46.5938C100.323 49.3021 97.5625 51.3229 94 52.6562C90.9167 53.8021 87.3438 54.375 83.2812 54.375C79.8021 54.375 76.5833 53.875 73.625 52.875C69.9167 51.625 67.0104 49.6979 64.9062 47.0938C62.3854 43.9688 61.125 39.9792 61.125 35.125V18.3438C61.125 16.8021 60.4375 15.5208 59.0625 14.5C57.7083 13.4583 57.0312 12.5 57.0312 11.625C57.0312 8.47917 61.0625 6.90625 69.125 6.90625C73.5417 6.90625 76.7188 7.22917 78.6562 7.875C80.8854 8.625 82 9.91667 82 11.75C82 12.7083 81.1667 13.6354 79.5 14.5312C77.8333 15.4271 77 16.6042 77 18.0625V35.25C77 38.8542 77.4062 41.5104 78.2188 43.2188C79.1979 45.2812 80.8854 46.3125 83.2812 46.3125C85.9271 46.3125 87.7188 45.3021 88.6562 43.2812C89.3646 41.7396 89.7188 39.0625 89.7188 35.25V18.3438C89.7188 16.6146 89.0312 15.2917 87.6562 14.375C86.3021 13.4583 85.625 12.5417 85.625 11.625C85.625 9.83333 86.5833 8.60417 88.5 7.9375C90.4167 7.25 93.4896 6.90625 97.7188 6.90625C100.219 6.90625 102.865 6.91667 105.656 6.9375C108.448 6.95833 110.698 7.11458 112.406 7.40625C115.99 8.01042 118.917 9.10417 121.188 10.6875C123.688 12.4375 124.938 14.5208 124.938 16.9375ZM176.156 34.2812C176.156 35.8646 175.458 37.0312 174.062 37.7812C172.417 38.6771 169.656 39.125 165.781 39.125C162.427 39.125 160.125 38.8021 158.875 38.1562C157.875 37.6354 157.375 36.8021 157.375 35.6562C157.375 35.3229 157.417 34.8958 157.5 34.375C157.688 33.1875 157.781 32.4167 157.781 32.0625V26.0938C157.781 22.2188 157.448 19.5417 156.781 18.0625C155.865 16.0417 154.052 15.0312 151.344 15.0312C148.969 15.0312 147.292 16.0521 146.312 18.0938C145.479 19.8229 145.062 22.4896 145.062 26.0938V43.5938C145.062 44.8854 145.896 45.9583 147.562 46.8125C149.229 47.6667 150.062 48.5938 150.062 49.5938C150.062 51.4062 148.948 52.6875 146.719 53.4375C144.719 54.1042 141.542 54.4375 137.188 54.4375C129.125 54.4375 125.094 52.8646 125.094 49.7188C125.094 48.8646 125.521 48.1354 126.375 47.5312C128.25 46.1979 129.188 44.7917 129.188 43.3125V26.2188C129.188 21.3854 130.448 17.4062 132.969 14.2812C135.052 11.6771 137.948 9.75 141.656 8.5C144.656 7.47917 147.885 6.96875 151.344 6.96875C155.365 6.96875 158.927 7.54167 162.031 8.6875C165.656 10.0208 168.427 12.0312 170.344 14.7188C172.552 17.8021 173.656 21.7292 173.656 26.5V28.2812C173.656 29.5729 174.073 30.6458 174.906 31.5C175.74 32.3542 176.156 33.2812 176.156 34.2812ZM232.969 51.3438C232.969 52.8229 232.115 54.1771 230.406 55.4062C228.719 56.6562 226.646 57.2812 224.188 57.2812C223.292 57.2812 222.406 57.1875 221.531 57C220.677 56.8333 219.76 56.5521 218.781 56.1562C216.74 55.3021 215.448 54.7292 214.906 54.4375C214.052 53.9792 213.25 53.4375 212.5 52.8125C211.208 53.1667 209.979 53.4375 208.812 53.625C207.646 53.8125 206.323 53.9062 204.844 53.9062C201.302 53.9062 198.083 53.4583 195.188 52.5625C191.458 51.3958 188.552 49.5729 186.469 47.0938C183.948 44.0729 182.688 40.1354 182.688 35.2812V18.5C182.688 16.9583 182 15.7292 180.625 14.8125C179.271 13.875 178.594 12.9688 178.594 12.0938C178.594 8.94792 182.625 7.375 190.688 7.375C195.104 7.375 198.281 7.69792 200.219 8.34375C202.448 9.09375 203.562 10.3854 203.562 12.2188C203.562 13.1979 202.729 14.1146 201.062 14.9688C199.396 15.8229 198.562 16.9062 198.562 18.2188V35.4062C198.562 38.3646 199.531 40.6562 201.469 42.2812C203.073 43.6146 204.927 44.2812 207.031 44.2812C209.031 44.2812 210.812 43.8125 212.375 42.875C214.562 41.5625 215.656 39.625 215.656 37.0625C215.656 35.2708 214.927 33.7604 213.469 32.5312C212.01 31.3021 211.281 29.7917 211.281 28V18.5C211.281 16.9583 210.594 15.75 209.219 14.875C207.865 13.9792 207.188 13.0521 207.188 12.0938C207.188 10.3021 208.146 9.07292 210.062 8.40625C211.979 7.71875 215.052 7.375 219.281 7.375C223.615 7.375 226.844 7.75 228.969 8.5C231.094 9.22917 232.156 10.4688 232.156 12.2188C232.156 13.1979 231.323 14.1146 229.656 14.9688C227.99 15.8229 227.156 16.9062 227.156 18.2188V35C227.156 37.6042 226.729 39.7812 225.875 41.5312C225.312 42.6771 224.531 43.6875 223.531 44.5625C224.573 46.5 225.99 47.75 227.781 48.3125C229.01 48.5417 230.24 48.7708 231.469 49C232.031 49.1875 232.417 49.4792 232.625 49.875C232.854 50.2708 232.969 50.7604 232.969 51.3438ZM299.969 43.25C299.969 44.4167 299.125 45.3958 297.438 46.1875C296.292 46.7292 294.875 47.125 293.188 47.375C291.5 47.625 290.115 47.75 289.031 47.75C287.781 47.75 286.875 47.5521 286.312 47.1562C285.667 46.6979 285.344 45.9479 285.344 44.9062C285.365 44.5938 285.375 44.3229 285.375 44.0938C285.375 43.4271 285.156 42.9271 284.719 42.5938C284.281 42.2396 283.729 42.0625 283.062 42.0625C282.625 42.0625 282.198 42.1458 281.781 42.3125C281.365 42.4792 281.104 42.7396 281 43.0938C280.979 43.1979 280.969 43.3646 280.969 43.5938C280.823 44.2604 280.75 44.8542 280.75 45.375C280.75 46 281.01 46.875 281.531 48C281.781 48.5417 281.906 49.0729 281.906 49.5938C281.906 51.1979 281.469 52.3333 280.594 53C279.323 53.9583 276.823 54.4375 273.094 54.4375C268.823 54.4375 265.802 54.125 264.031 53.5C262.01 52.7917 261 51.5312 261 49.7188C261 48.6979 261.708 47.6667 263.125 46.625C264.562 45.5625 265.281 44.7812 265.281 44.2812C265.281 44.0938 265.219 43.8854 265.094 43.6562C264.99 43.4062 264.885 43.1667 264.781 42.9375C264.615 42.7292 264.292 42.625 263.812 42.625C262.333 42.625 261.073 42.625 260.031 42.625C259.01 42.625 257.99 42.6354 256.969 42.6562C250.927 42.6562 245.781 41.1875 241.531 38.25C236.802 34.9792 234.438 30.5417 234.438 24.9375C234.438 19.0833 236.844 14.5312 241.656 11.2812C245.927 8.40625 251.302 6.96875 257.781 6.96875C264.573 6.96875 270.219 8.70833 274.719 12.1875C279.01 15.5 281.156 19.4479 281.156 24.0312V32.9375C281.135 33.1875 281.125 33.375 281.125 33.5C281.125 33.8542 281.219 34.1354 281.406 34.3438C281.615 34.5312 282.031 34.625 282.656 34.625C283.76 34.625 284.635 34.6667 285.281 34.75C285.927 34.8333 286.562 34.9062 287.188 34.9688C290.917 35.3854 293.885 36.2188 296.094 37.4688C298.677 38.9271 299.969 40.8542 299.969 43.25ZM265.125 23.75C265.125 20.5208 264.271 18.1667 262.562 16.6875C261.292 15.5833 259.698 15.0312 257.781 15.0312C255.698 15.0312 253.917 16.0208 252.438 18C251.188 19.6875 250.562 21.8542 250.562 24.5C250.562 26.9792 251.177 29.2188 252.406 31.2188C253.885 33.6146 255.844 34.8125 258.281 34.8125C259.094 34.8333 260.177 34.8542 261.531 34.875C262.885 34.8958 263.646 34.9062 263.812 34.9062C264.083 34.8229 264.281 34.7396 264.406 34.6562C264.823 34.3854 265.031 34 265.031 33.5L265.125 23.75ZM350.969 34.2812C350.969 35.8646 350.271 37.0312 348.875 37.7812C347.229 38.6771 344.469 39.125 340.594 39.125C337.24 39.125 334.938 38.8021 333.688 38.1562C332.688 37.6354 332.188 36.8021 332.188 35.6562C332.188 35.3229 332.229 34.8958 332.312 34.375C332.5 33.1875 332.594 32.4167 332.594 32.0625V26.0938C332.594 22.2188 332.26 19.5417 331.594 18.0625C330.677 16.0417 328.865 15.0312 326.156 15.0312C323.781 15.0312 322.104 16.0521 321.125 18.0938C320.292 19.8229 319.875 22.4896 319.875 26.0938V43.5938C319.875 44.8854 320.708 45.9583 322.375 46.8125C324.042 47.6667 324.875 48.5938 324.875 49.5938C324.875 51.4062 323.76 52.6875 321.531 53.4375C319.531 54.1042 316.354 54.4375 312 54.4375C303.938 54.4375 299.906 52.8646 299.906 49.7188C299.906 48.8646 300.333 48.1354 301.188 47.5312C303.062 46.1979 304 44.7917 304 43.3125V26.2188C304 21.3854 305.26 17.4062 307.781 14.2812C309.865 11.6771 312.76 9.75 316.469 8.5C319.469 7.47917 322.698 6.96875 326.156 6.96875C330.177 6.96875 333.74 7.54167 336.844 8.6875C340.469 10.0208 343.24 12.0312 345.156 14.7188C347.365 17.8021 348.469 21.7292 348.469 26.5V28.2812C348.469 29.5729 348.885 30.6458 349.719 31.5C350.552 32.3542 350.969 33.2812 350.969 34.2812ZM401.969 40.625C401.969 41.8958 401.562 42.8125 400.75 43.375C399.583 44.1875 397.365 44.5938 394.094 44.5938H392.5C389.812 44.5938 388.052 44.2292 387.219 43.5C386.469 42.8542 386.094 41.8021 386.094 40.3438V39.375C386.094 35.5 385.76 32.8229 385.094 31.3438C384.177 29.3229 382.365 28.3125 379.656 28.3125C377.302 28.3125 375.625 29.3646 374.625 31.4688C373.792 33.2188 373.375 35.9062 373.375 39.5312V43.5938C373.375 44.8854 374.208 45.9583 375.875 46.8125C377.542 47.6667 378.375 48.5938 378.375 49.5938C378.375 51.4062 377.26 52.6875 375.031 53.4375C373.031 54.1042 369.854 54.4375 365.5 54.4375C357.438 54.4375 353.406 52.8646 353.406 49.7188C353.406 48.8646 353.833 48.1354 354.688 47.5312C356.562 46.1979 357.5 44.7917 357.5 43.3125V20.3438C357.5 17.9271 356.823 16.2396 355.469 15.2812C354.115 14.3229 353.438 13.1979 353.438 11.9062C353.438 10.4062 354.542 9.28125 356.75 8.53125C358.979 7.76042 362.094 7.375 366.094 7.375C370.26 7.375 373.281 7.6875 375.156 8.3125C377.344 9.04167 378.438 10.2604 378.438 11.9688C378.438 13.4062 377.646 14.5729 376.062 15.4688C374.5 16.3438 373.719 17.4792 373.719 18.875L373.75 21.2812C374.146 20.9688 374.927 20.7188 376.094 20.5312C377.281 20.3438 378.469 20.25 379.656 20.25C383.677 20.25 387.24 20.8229 390.344 21.9688C393.969 23.3021 396.74 25.3125 398.656 28C400.865 31.0833 401.969 35.0104 401.969 39.7812V40.625ZM454.594 34.2812C454.594 35.8646 453.896 37.0312 452.5 37.7812C450.854 38.6771 448.094 39.125 444.219 39.125C440.865 39.125 438.562 38.8021 437.312 38.1562C436.312 37.6354 435.812 36.8021 435.812 35.6562C435.812 35.3229 435.854 34.8958 435.938 34.375C436.125 33.1875 436.219 32.4167 436.219 32.0625V26.0938C436.219 22.2188 435.885 19.5417 435.219 18.0625C434.302 16.0417 432.49 15.0312 429.781 15.0312C427.406 15.0312 425.729 16.0521 424.75 18.0938C423.917 19.8229 423.5 22.4896 423.5 26.0938V43.5938C423.5 44.8854 424.333 45.9583 426 46.8125C427.667 47.6667 428.5 48.5938 428.5 49.5938C428.5 51.4062 427.385 52.6875 425.156 53.4375C423.156 54.1042 419.979 54.4375 415.625 54.4375C407.562 54.4375 403.531 52.8646 403.531 49.7188C403.531 48.8646 403.958 48.1354 404.812 47.5312C406.688 46.1979 407.625 44.7917 407.625 43.3125V26.2188C407.625 21.3854 408.885 17.4062 411.406 14.2812C413.49 11.6771 416.385 9.75 420.094 8.5C423.094 7.47917 426.323 6.96875 429.781 6.96875C433.802 6.96875 437.365 7.54167 440.469 8.6875C444.094 10.0208 446.865 12.0312 448.781 14.7188C450.99 17.8021 452.094 21.7292 452.094 26.5V28.2812C452.094 29.5729 452.51 30.6458 453.344 31.5C454.177 32.3542 454.594 33.2812 454.594 34.2812ZM516.812 26C519.125 26 520.854 25.4688 522 24.4062C523.042 23.4479 523.562 22.1458 523.562 20.5C523.562 18.9167 523.052 17.6667 522.031 16.75C520.76 15.6042 518.771 15.0312 516.062 15.0312C513.604 15.0312 511.812 15.6875 510.688 17C509.938 17.875 509.562 18.875 509.562 20C509.562 21.8958 509.99 23.3021 510.844 24.2188C511.948 25.4062 513.938 26 516.812 26ZM487.469 45.1875C484.344 45.1875 481.938 44.7812 480.25 43.9688C478.333 43.0521 476.948 41.0312 476.094 37.9062C475.906 37.2188 476.656 36.2708 478.344 35.0625C479.906 33.9375 481.271 33.2292 482.438 32.9375C483.312 32.7292 483.781 32.6146 483.844 32.5938C484.948 32.3021 485.76 32.1562 486.281 32.1562C487.031 32.1562 487.594 32.3333 487.969 32.6875C488.427 33.125 488.656 33.8333 488.656 34.8125C488.656 35.8333 488.906 36.6458 489.406 37.25C489.927 37.8542 490.542 38.1562 491.25 38.1562C492.021 38.1562 492.562 38.0104 492.875 37.7188C493.062 37.5521 493.146 37.2292 493.125 36.75C493.125 33.6875 493.125 31.5729 493.125 30.4062C493.125 29.2188 493.125 27.8229 493.125 26.2188C493.125 21.3854 494.448 17.4062 497.094 14.2812C499.281 11.6979 502.312 9.77083 506.188 8.5C509.292 7.47917 512.583 6.96875 516.062 6.96875C520.167 6.96875 523.854 7.39583 527.125 8.25C531 9.27083 534 10.7812 536.125 12.7812C538.604 15.1146 539.844 18.0521 539.844 21.5938C539.844 23.5938 539.271 25.375 538.125 26.9375C536.667 28.9375 534.385 30.5 531.281 31.625C527.573 32.9583 522.771 33.625 516.875 33.625C515.583 33.625 514.479 33.5312 513.562 33.3438C512.667 33.1562 511.688 32.7812 510.625 32.2188C510.438 32.1146 510.25 32.0625 510.062 32.0625C509.771 32.0625 509.521 32.2604 509.312 32.6562C509.271 32.7396 509.198 32.9271 509.094 33.2188C509.01 33.4896 508.958 33.8333 508.938 34.25C508.917 34.6667 508.906 34.9062 508.906 34.9688C508.906 35.4271 508.906 35.7708 508.906 36C508.927 36.2292 508.958 36.4583 509 36.6875C509 37.3542 509.073 37.7708 509.219 37.9375C509.365 38.1042 509.771 38.1875 510.438 38.1875L521.5 38.1562C524.729 38.1562 527.188 38.1771 528.875 38.2188C530.583 38.2396 531.823 38.3021 532.594 38.4062C536.094 38.8854 538.792 39.7604 540.688 41.0312C542.729 42.4062 543.75 44.1562 543.75 46.2812C543.75 47.4688 542.844 48.4792 541.031 49.3125C539.719 49.9167 538.281 50.3125 536.719 50.5C534.615 50.7708 532.927 50.9062 531.656 50.9062C529.948 50.9062 528.688 50.6771 527.875 50.2188C527.062 49.7604 526.656 48.9896 526.656 47.9062C526.656 47.5312 526.677 47.25 526.719 47.0625C526.844 46.375 526.385 45.8958 525.344 45.625C524.302 45.3333 522.812 45.1875 520.875 45.1875C519.562 45.1875 518.188 45.2188 516.75 45.2812C512.458 45.4688 510.198 45.5625 509.969 45.5625C509.427 45.5625 509.125 45.7396 509.062 46.0938C509.021 46.4271 509 46.7396 509 47.0312C509 47.8021 509.688 48.3125 511.062 48.5625C512.438 48.8125 513.125 49.5625 513.125 50.8125C513.125 52.1458 512.177 53.0833 510.281 53.625C508.406 54.1667 505.354 54.4375 501.125 54.4375C497.333 54.4375 494.812 54.1771 493.562 53.6562C492.542 53.2396 492.031 52.4479 492.031 51.2812C492.031 50.2396 492.312 49.4792 492.875 49C493.458 48.5 493.75 47.8542 493.75 47.0625C493.75 46.3125 493.625 45.8125 493.375 45.5625C493.125 45.3125 492.729 45.1875 492.188 45.1875H487.469ZM598.219 49.5938C598.219 51.3229 597.135 52.5625 594.969 53.3125C592.823 54.0625 589.615 54.4375 585.344 54.4375C581.073 54.4375 578.052 54.125 576.281 53.5C574.26 52.7917 573.25 51.5312 573.25 49.7188C573.25 48.8021 573.927 47.8854 575.281 46.9688C576.656 46.0521 577.344 44.7292 577.344 43V26.0938C577.344 22.2812 576.99 19.6042 576.281 18.0625C575.344 16.0417 573.552 15.0312 570.906 15.0312C568.531 15.0312 566.854 16.0521 565.875 18.0938C565.042 19.8438 564.625 22.5104 564.625 26.0938V43.2812C564.625 44.6562 565.76 45.9896 568.031 47.2812C569.094 47.8854 569.625 48.6562 569.625 49.5938C569.625 51.4062 568.51 52.6875 566.281 53.4375C564.281 54.1042 561.104 54.4375 556.75 54.4375C548.688 54.4375 544.656 52.8646 544.656 49.7188C544.656 48.8438 545.333 47.8958 546.688 46.875C548.062 45.8333 548.75 44.5417 548.75 43V26.2188C548.75 21.3854 550.01 17.4062 552.531 14.2812C554.615 11.6771 557.51 9.75 561.219 8.5C564.219 7.47917 567.448 6.96875 570.906 6.96875C574.927 6.96875 578.49 7.54167 581.594 8.6875C585.219 10.0208 587.99 12.0312 589.906 14.7188C592.115 17.8021 593.219 21.7292 593.219 26.5V43.2812C593.219 44.4479 594.354 45.75 596.625 47.1875C597.688 47.8542 598.219 48.6562 598.219 49.5938ZM673.469 11.75C673.469 12.7292 672.635 13.6979 670.969 14.6562C669.302 15.6146 668.469 16.75 668.469 18.0625V34.8438C668.469 39.5938 667.365 43.5104 665.156 46.5938C663.198 49.3021 660.438 51.3229 656.875 52.6562C653.792 53.8021 650.219 54.375 646.156 54.375C642.677 54.375 639.458 53.875 636.5 52.875C632.792 51.625 629.885 49.6979 627.781 47.0938C625.26 43.9688 624 39.9792 624 35.125V18.3438C624 16.8021 623.312 15.5208 621.938 14.5C620.583 13.4583 619.906 12.5 619.906 11.625C619.906 8.47917 623.938 6.90625 632 6.90625C636.417 6.90625 639.594 7.22917 641.531 7.875C643.76 8.625 644.875 9.91667 644.875 11.75C644.875 12.7083 644.042 13.6354 642.375 14.5312C640.708 15.4271 639.875 16.6042 639.875 18.0625V35.25C639.875 38.8542 640.281 41.5104 641.094 43.2188C642.073 45.2812 643.76 46.3125 646.156 46.3125C648.802 46.3125 650.594 45.3021 651.531 43.2812C652.24 41.7396 652.594 39.0625 652.594 35.25V18.3438C652.594 16.6146 651.906 15.2917 650.531 14.375C649.177 13.4583 648.5 12.5417 648.5 11.625C648.5 9.83333 649.458 8.60417 651.375 7.9375C653.292 7.25 656.365 6.90625 660.594 6.90625C664.927 6.90625 668.156 7.28125 670.281 8.03125C672.406 8.76042 673.469 10 673.469 11.75ZM726.594 27.9375C726.594 29.0833 725.812 29.9375 724.25 30.5C723.458 30.7917 722.156 31.0417 720.344 31.25C717.906 31.5625 715.844 31.7188 714.156 31.7188C712.219 31.7188 710.792 31.4792 709.875 31C708.979 30.5208 708.531 29.7292 708.531 28.625C708.531 28.5 708.531 28.375 708.531 28.25C708.573 28.0833 708.594 27.9583 708.594 27.875C708.719 27.0208 708.292 26.4167 707.312 26.0625C706.562 25.7917 705.365 25.6562 703.719 25.6562C703.052 25.6562 702.094 25.6875 700.844 25.75C699.594 25.8125 698.729 25.8438 698.25 25.8438C697.438 25.8438 696.677 26.0417 695.969 26.4375C695.281 26.8333 694.938 27.3438 694.938 27.9688V35.125C694.938 38.7083 695.354 41.3646 696.188 43.0938C697.188 45.1562 698.865 46.1875 701.219 46.1875C703.74 46.1875 705.49 45.6562 706.469 44.5938C707.26 43.7396 707.656 42.3542 707.656 40.4375V39.4688C707.656 38.2812 707.927 37.4479 708.469 36.9688C708.927 36.5729 709.646 36.375 710.625 36.375C711.062 36.375 711.646 36.4167 712.375 36.5C714.042 36.6875 715.135 36.7812 715.656 36.7812C719.24 36.7812 721.448 36.9167 722.281 37.1875C723.115 37.4583 723.531 38.125 723.531 39.1875V40.0312C723.531 44.3646 721.198 47.875 716.531 50.5625C712.26 53.0208 707.156 54.25 701.219 54.25C697.74 54.25 694.521 53.75 691.562 52.75C687.854 51.5 684.948 49.5729 682.844 46.9688C680.323 43.8438 679.062 39.8542 679.062 35V17.9062C679.062 16.3646 678.375 15.1354 677 14.2188C675.646 13.2812 674.969 12.375 674.969 11.5C674.969 8.35417 679 6.78125 687.062 6.78125C691.479 6.78125 694.656 7.10417 696.594 7.75C698.823 8.5 699.938 9.79167 699.938 11.625C699.938 12.7292 699.104 13.7292 697.438 14.625C695.771 15.5208 694.938 16.3125 694.938 17C694.938 17.4583 694.958 17.75 695 17.875C695.125 18.2708 695.427 18.4688 695.906 18.4688L707.531 18.4375C708.656 18.4375 709.906 18.4479 711.281 18.4688C712.677 18.4688 713.844 18.5312 714.781 18.6562C718.156 19.1146 720.969 20.2292 723.219 22C725.469 23.7708 726.594 25.75 726.594 27.9375ZM767.188 53.5C764.438 53.5 762.656 53.4375 761.844 53.3125C759.531 52.9583 758.375 51.7188 758.375 49.5938C758.375 48.6146 758.531 47.6979 758.844 46.8438C759.156 45.9896 759.312 44.9062 759.312 43.5938V26.0938C759.312 22.5104 758.896 19.8542 758.062 18.125C757.062 16.0625 755.385 15.0312 753.031 15.0312C750.323 15.0312 748.51 16.0417 747.594 18.0625C746.927 19.5417 746.594 22.2188 746.594 26.0938V32.0625C746.594 32.4167 746.635 32.9479 746.719 33.6562C746.802 34.3646 746.844 34.875 746.844 35.1875C746.844 36.4583 746.354 37.3646 745.375 37.9062C744.062 38.6354 741.625 39 738.062 39C734.833 39 732.625 38.7083 731.438 38.125C730.458 37.6458 729.969 36.8125 729.969 35.625C729.969 35.4375 729.969 35.2812 729.969 35.1562C729.99 35.0104 730.031 34.7188 730.094 34.2812C730.344 32.8646 730.51 31.8958 730.594 31.375C730.677 30.8333 730.719 29.8021 730.719 28.2812V26.5C730.719 21.75 731.823 17.8333 734.031 14.75C735.99 12.0417 738.75 10.0208 742.312 8.6875C745.396 7.54167 748.969 6.96875 753.031 6.96875C756.51 6.96875 759.729 7.46875 762.688 8.46875C766.396 9.71875 769.302 11.6458 771.406 14.25C773.927 17.375 775.188 21.3646 775.188 26.2188L775.312 44.5625C775.25 44.7083 775.208 44.8125 775.188 44.875C775.104 45.125 775.062 45.3333 775.062 45.5C775.062 45.7917 775.188 45.9375 775.438 45.9375C776.417 45.9375 777.406 45.9375 778.406 45.9375C778.594 46.0417 779.219 46.1458 780.281 46.25C783.531 46.5833 786.104 47.6875 788 49.5625C789.771 51.3125 790.656 53.3854 790.656 55.7812C790.656 56.9479 789.812 57.9271 788.125 58.7188C787 59.2396 785.521 59.6354 783.688 59.9062C781.854 60.1979 780.333 60.3438 779.125 60.3438C777.5 60.3438 776.375 60.0521 775.75 59.4688C775.208 58.9688 774.938 58.1354 774.938 56.9688C774.938 56.5104 774.969 56.0104 775.031 55.4688C775.135 54.4271 773.927 53.8021 771.406 53.5938C770.615 53.5312 769.208 53.5 767.188 53.5ZM844.531 51.3438C844.531 52.8229 843.677 54.1771 841.969 55.4062C840.281 56.6562 838.208 57.2812 835.75 57.2812C834.854 57.2812 833.969 57.1875 833.094 57C832.24 56.8333 831.323 56.5521 830.344 56.1562C828.302 55.3021 827.01 54.7292 826.469 54.4375C825.615 53.9792 824.812 53.4375 824.062 52.8125C822.771 53.1667 821.542 53.4375 820.375 53.625C819.208 53.8125 817.885 53.9062 816.406 53.9062C812.865 53.9062 809.646 53.4583 806.75 52.5625C803.021 51.3958 800.115 49.5729 798.031 47.0938C795.51 44.0729 794.25 40.1354 794.25 35.2812V18.5C794.25 16.9583 793.562 15.7292 792.188 14.8125C790.833 13.875 790.156 12.9688 790.156 12.0938C790.156 8.94792 794.188 7.375 802.25 7.375C806.667 7.375 809.844 7.69792 811.781 8.34375C814.01 9.09375 815.125 10.3854 815.125 12.2188C815.125 13.1979 814.292 14.1146 812.625 14.9688C810.958 15.8229 810.125 16.9062 810.125 18.2188V35.4062C810.125 38.3646 811.094 40.6562 813.031 42.2812C814.635 43.6146 816.49 44.2812 818.594 44.2812C820.594 44.2812 822.375 43.8125 823.938 42.875C826.125 41.5625 827.219 39.625 827.219 37.0625C827.219 35.2708 826.49 33.7604 825.031 32.5312C823.573 31.3021 822.844 29.7917 822.844 28V18.5C822.844 16.9583 822.156 15.75 820.781 14.875C819.427 13.9792 818.75 13.0521 818.75 12.0938C818.75 10.3021 819.708 9.07292 821.625 8.40625C823.542 7.71875 826.615 7.375 830.844 7.375C835.177 7.375 838.406 7.75 840.531 8.5C842.656 9.22917 843.719 10.4688 843.719 12.2188C843.719 13.1979 842.885 14.1146 841.219 14.9688C839.552 15.8229 838.719 16.9062 838.719 18.2188V35C838.719 37.6042 838.292 39.7812 837.438 41.5312C836.875 42.6771 836.094 43.6875 835.094 44.5625C836.135 46.5 837.552 47.75 839.344 48.3125C840.573 48.5417 841.802 48.7708 843.031 49C843.594 49.1875 843.979 49.4792 844.188 49.875C844.417 50.2708 844.531 50.7604 844.531 51.3438ZM859.656 15.1875C859.281 15.1875 858.719 15.1458 857.969 15.0625C857.24 14.9583 856.448 14.9062 855.594 14.9062C852.115 14.9062 849.26 13.9792 847.031 12.125C844.802 10.25 843.688 8 843.688 5.375C843.688 4.1875 844.531 3.19792 846.219 2.40625C847.427 1.84375 848.823 1.46875 850.406 1.28125C852.01 1.07292 853.427 0.96875 854.656 0.96875C856.51 0.96875 857.781 1.23958 858.469 1.78125C859.177 2.32292 859.531 3.19792 859.531 4.40625C859.531 4.78125 859.51 5.11458 859.469 5.40625C859.427 5.69792 859.406 5.94792 859.406 6.15625C859.406 6.94792 859.906 7.45833 860.906 7.6875C861.927 7.89583 864.219 8 867.781 8C871.698 8 874.146 8.32292 875.125 8.96875C875.896 9.48958 876.281 10.7812 876.281 12.8438C876.281 13.8229 876.125 14.7396 875.812 15.5938C875.5 16.4479 875.344 17.5312 875.344 18.8438V35.0938C875.344 38.6771 875.76 41.3333 876.594 43.0625C877.594 45.125 879.271 46.1562 881.625 46.1562C884.333 46.1562 886.146 45.1458 887.062 43.125C887.729 41.6458 888.062 38.9688 888.062 35.0938V29.125C888.062 28.7292 888.021 28.2604 887.938 27.7188C887.75 26.4688 887.656 25.7396 887.656 25.5312C887.656 24.4062 888.156 23.5833 889.156 23.0625C890.448 22.3958 892.75 22.0625 896.062 22.0625C899.979 22.0625 902.74 22.5 904.344 23.375C905.74 24.125 906.438 25.3021 906.438 26.9062C906.438 27.8854 906.021 28.8021 905.188 29.6562C904.354 30.5104 903.938 31.5938 903.938 32.9062V34.6875C903.938 39.4375 902.833 43.3542 900.625 46.4375C898.667 49.1458 895.906 51.1667 892.344 52.5C889.26 53.6458 885.688 54.2188 881.625 54.2188C878.146 54.2188 874.927 53.7188 871.969 52.7188C868.26 51.4688 865.354 49.5417 863.25 46.9375C860.729 43.8125 859.469 39.8229 859.469 34.9688C859.469 33.5729 859.479 31.3958 859.5 28.4375C859.542 25.4583 859.573 22.5729 859.594 19.7812C859.635 16.9688 859.656 15.4375 859.656 15.1875ZM960.219 55.1875C960.219 56.375 959.438 57.3854 957.875 58.2188C956.667 58.8646 955.24 59.2812 953.594 59.4688C951.969 59.6771 950.51 59.7812 949.219 59.7812C944.51 59.7812 942.156 58.4896 942.156 55.9062C942.156 55.7812 942.156 55.6562 942.156 55.5312C942.198 55.3438 942.219 55.2083 942.219 55.125C942.365 54.2708 941.969 53.6771 941.031 53.3438C940.094 53.0312 938.719 52.875 936.906 52.875C936.198 52.875 935.01 52.9062 933.344 52.9688C931.677 53.0312 930.406 53.0625 929.531 53.0625C928.052 53.0625 926.573 53.2917 925.094 53.75C923.615 54.2083 922.146 54.4375 920.688 54.4375C912.625 54.4375 908.594 52.8646 908.594 49.7188C908.594 48.8646 909.021 48.1354 909.875 47.5312C911.75 46.1979 912.688 44.7917 912.688 43.3125V26.2188C912.688 21.3854 913.948 17.4062 916.469 14.2812C918.552 11.6771 921.448 9.75 925.156 8.5C928.156 7.47917 931.385 6.96875 934.844 6.96875C938.865 6.96875 942.427 7.54167 945.531 8.6875C949.156 10.0208 951.927 12.0312 953.844 14.7188C956.052 17.8021 957.156 21.7292 957.156 26.5V27.3438C957.156 28.6146 956.75 29.5312 955.938 30.0938C954.771 30.9062 952.552 31.3125 949.281 31.3125H947.688C945 31.3125 943.24 30.9479 942.406 30.2188C941.656 29.5729 941.281 28.5208 941.281 27.0625V26.0938C941.281 22.2188 940.948 19.5417 940.281 18.0625C939.365 16.0417 937.552 15.0312 934.844 15.0312C932.469 15.0312 930.792 16.0521 929.812 18.0938C928.979 19.8229 928.562 22.4896 928.562 26.0938V43.875C928.562 44.5833 928.792 45.1146 929.25 45.4688C929.729 45.8229 930.604 46 931.875 46C933.271 46 934.688 46 936.125 46C937.562 46 939.01 45.9896 940.469 45.9688C942.677 45.9688 944.354 45.9896 945.5 46.0312C946.646 46.0521 947.615 46.1146 948.406 46.2188C951.802 46.6771 954.615 47.75 956.844 49.4375C959.094 51.1042 960.219 53.0208 960.219 55.1875Z" fill="#171717"/>
</svg>
