<svg width="589" height="48" viewBox="0 0 589 48" fill="none" xmlns="http://www.w3.org/2000/svg">
<path d="M18.416 45.144C18.416 45.6987 17.1147 46.1467 14.512 46.488C11.952 46.8293 9.34933 47 6.704 47C4.10133 47 2.416 46.8507 1.648 46.552C0.922667 46.2533 0.56 45.784 0.56 45.144V5.784C0.56 4.71733 1.79733 3.75733 4.272 2.904C6.74667 2.008 9.43467 1.56 12.336 1.56C16.3893 1.56 18.416 2.52 18.416 4.44V18.52H24.112V5.784C24.112 4.71733 25.3493 3.75733 27.824 2.904C30.3413 2.008 33.0507 1.56 35.952 1.56C39.9627 1.56 41.968 2.52 41.968 4.44V45.144C41.968 45.6987 40.6667 46.1467 38.064 46.488C35.4613 46.8293 32.8587 47 30.256 47C27.6533 47 25.968 46.8507 25.2 46.552C24.4747 46.2533 24.112 45.784 24.112 45.144V30.488H18.416V45.144ZM68.692 47.576C65.1507 47.576 62.1 47.256 59.54 46.616C57.0227 45.9333 54.6973 44.7387 52.564 43.032C48.2547 39.6613 46.1 33.1973 46.1 23.64C46.1 19.6293 46.676 16.1307 47.828 13.144C49.0227 10.1573 50.6653 7.78933 52.756 6.04C56.852 2.62666 62.164 0.919998 68.692 0.919998C72.0627 0.919998 74.9853 1.21866 77.46 1.816C79.9773 2.41333 82.3453 3.50133 84.564 5.08C89.044 8.32266 91.284 14.5093 91.284 23.64C91.284 31.832 89.2573 37.8693 85.204 41.752C81.1507 45.6347 75.6467 47.576 68.692 47.576ZM66.58 36.632C67.092 37.2293 67.796 37.528 68.692 37.528C69.588 37.528 70.292 37.2293 70.804 36.632C71.316 35.992 71.7427 34.6693 72.084 32.664C72.4253 30.616 72.596 27.7787 72.596 24.152C72.596 20.5253 72.4253 17.7307 72.084 15.768C71.7427 13.8053 71.316 12.5253 70.804 11.928C70.292 11.3307 69.588 11.032 68.692 11.032C67.796 11.032 67.092 11.3307 66.58 11.928C66.068 12.5253 65.6413 13.8053 65.3 15.768C64.9587 17.7307 64.788 20.5253 64.788 24.152C64.788 27.7787 64.9587 30.616 65.3 32.664C65.6413 34.6693 66.068 35.992 66.58 36.632ZM100.811 47C98.6777 47 97.2483 46.8933 96.523 46.68C95.7977 46.424 95.435 46.0187 95.435 45.464V5.656C95.435 4.71733 96.6723 3.8 99.147 2.904C101.622 1.96533 104.395 1.496 107.467 1.496C110.198 1.496 111.99 2.072 112.843 3.224C113.142 3.65067 113.291 4.07733 113.291 4.504V32.856C118.496 32.5147 122.422 32.344 125.067 32.344C125.963 32.344 126.411 33.7733 126.411 36.632C126.411 39.448 126.219 41.88 125.835 43.928C125.451 45.976 124.939 47 124.299 47H100.811ZM150.664 47H135.56C133.469 47 132.061 46.8507 131.336 46.552C130.61 46.2533 130.248 45.7627 130.248 45.08V4.696C130.248 3.58666 130.717 2.79733 131.656 2.328C132.594 1.816 134.216 1.56 136.52 1.56H150.92C159.112 1.56 164.765 3.18133 167.88 6.424C170.994 9.624 172.552 15.4693 172.552 23.96C172.552 32.4507 170.93 38.424 167.688 41.88C164.445 45.2933 158.77 47 150.664 47ZM150.152 11.096C149.128 11.096 148.445 11.1813 148.104 11.352V37.208L150.536 37.464C151.816 37.464 152.776 36.44 153.416 34.392C154.098 32.344 154.44 28.8027 154.44 23.768C154.44 18.7333 154.098 15.3627 153.416 13.656C152.733 11.9493 151.645 11.096 150.152 11.096ZM220.043 45.144C220.043 45.6987 218.742 46.1467 216.139 46.488C213.536 46.8293 210.934 47 208.331 47C205.771 47 204.107 46.872 203.339 46.616C202.571 46.3173 202.187 45.8267 202.187 45.144V34.008C193.739 16.728 189.515 7.34133 189.515 5.848C189.515 4.952 190.944 4.01333 193.803 3.032C196.662 2.05066 199.67 1.56 202.827 1.56C206.88 1.56 209.035 2.75466 209.291 5.144L211.019 22.36H211.723L212.939 5.592C213.024 4.39733 214.539 3.43733 217.483 2.712C220.427 1.944 223.222 1.56 225.867 1.56C228.512 1.56 230.347 1.944 231.371 2.712C232.395 3.48 232.907 4.29066 232.907 5.144C232.907 5.95466 228.619 15.576 220.043 34.008V45.144ZM257.755 47.576C254.213 47.576 251.163 47.256 248.603 46.616C246.085 45.9333 243.76 44.7387 241.627 43.032C237.317 39.6613 235.163 33.1973 235.163 23.64C235.163 19.6293 235.739 16.1307 236.891 13.144C238.085 10.1573 239.728 7.78933 241.819 6.04C245.915 2.62666 251.227 0.919998 257.755 0.919998C261.125 0.919998 264.048 1.21866 266.523 1.816C269.04 2.41333 271.408 3.50133 273.627 5.08C278.107 8.32266 280.347 14.5093 280.347 23.64C280.347 31.832 278.32 37.8693 274.267 41.752C270.213 45.6347 264.709 47.576 257.755 47.576ZM255.643 36.632C256.155 37.2293 256.859 37.528 257.755 37.528C258.651 37.528 259.355 37.2293 259.867 36.632C260.379 35.992 260.805 34.6693 261.147 32.664C261.488 30.616 261.659 27.7787 261.659 24.152C261.659 20.5253 261.488 17.7307 261.147 15.768C260.805 13.8053 260.379 12.5253 259.867 11.928C259.355 11.3307 258.651 11.032 257.755 11.032C256.859 11.032 256.155 11.3307 255.643 11.928C255.131 12.5253 254.704 13.8053 254.363 15.768C254.021 17.7307 253.851 20.5253 253.851 24.152C253.851 27.7787 254.021 30.616 254.363 32.664C254.704 34.6693 255.131 35.992 255.643 36.632ZM325.842 29.144C325.842 35.288 324.071 39.896 320.53 42.968C317.031 45.9973 311.932 47.512 305.234 47.512C298.578 47.512 293.458 45.9973 289.874 42.968C286.29 39.896 284.498 35.288 284.498 29.144V5.656C284.498 4.58933 285.692 3.62933 288.082 2.776C290.514 1.92266 293.33 1.496 296.53 1.496C299.09 1.496 300.754 1.98667 301.522 2.968C302.076 3.736 302.354 4.39733 302.354 4.952V24.024C302.354 28.8453 302.524 32.0453 302.866 33.624C303.25 35.16 304.039 35.928 305.234 35.928C306.428 35.928 307.175 35.1813 307.474 33.688C307.815 32.152 307.986 28.9093 307.986 23.96V5.656C307.986 4.58933 309.18 3.62933 311.57 2.776C314.002 1.92266 316.796 1.496 319.954 1.496C322.642 1.496 324.348 1.98667 325.074 2.968C325.586 3.736 325.842 4.39733 325.842 4.952V29.144ZM348.855 45.144C348.855 45.6987 347.554 46.1467 344.951 46.488C342.348 46.8293 339.724 47 337.079 47C334.476 47 332.791 46.8507 332.023 46.552C331.298 46.2533 330.935 45.784 330.935 45.144V3.992C330.935 2.88266 332.322 2.09333 335.095 1.624C337.911 1.15466 341.452 0.919998 345.719 0.919998C349.986 0.919998 352.738 0.941331 353.975 0.983997C355.255 0.983997 356.748 1.048 358.455 1.176C360.162 1.304 361.506 1.51733 362.487 1.816C363.511 2.11466 364.62 2.49866 365.815 2.968C367.052 3.43733 368.012 4.056 368.695 4.824C369.378 5.54933 370.039 6.424 370.679 7.448C371.831 9.28266 372.407 11.9067 372.407 15.32C372.407 18.6907 371.831 21.5493 370.679 23.896C369.57 26.2 368.076 27.9493 366.199 29.144C371.106 36.8667 373.559 41.7733 373.559 43.864C373.559 45.9547 369.356 47 360.951 47C358.519 47 356.834 46.8933 355.895 46.68C354.956 46.4667 354.359 45.9973 354.103 45.272L349.943 32.088L348.855 32.024V45.144ZM348.855 22.168H350.519C352.994 22.168 354.231 20.248 354.231 16.408C354.231 14.4453 353.89 13.0587 353.207 12.248C352.567 11.4373 351.82 11.032 350.967 11.032H348.855V22.168ZM418.323 45.464C418.323 45.9333 417 46.3173 414.355 46.616C411.752 46.872 409.128 47 406.483 47C403.88 47 402.216 46.8933 401.491 46.68C400.808 46.424 400.467 46.0187 400.467 45.464V17.944H391.571C391.101 17.944 390.696 17.3467 390.355 16.152C390.013 14.9573 389.843 13.1867 389.843 10.84C389.843 8.45066 390.099 6.31733 390.611 4.44C391.123 2.52 391.805 1.56 392.659 1.56H427.283C427.923 1.56 428.349 2.15733 428.562 3.352C428.819 4.54666 428.947 6.27466 428.947 8.536C428.947 10.7973 428.712 12.9307 428.243 14.936C427.773 16.9413 427.133 17.944 426.323 17.944H418.323V45.464ZM444.099 43.736C444.014 44.9733 443.352 45.8267 442.115 46.296C440.92 46.7653 438.744 47 435.587 47C432.43 47 429.784 46.7227 427.651 46.168C425.56 45.5707 424.515 44.824 424.515 43.928C424.515 42.904 426.414 36.376 430.211 24.344C434.008 12.2693 436.184 5.31467 436.739 3.48C436.952 2.92533 438.659 2.47733 441.859 2.136C445.102 1.752 448.558 1.56 452.227 1.56C455.939 1.56 457.987 2.2 458.371 3.48C466.435 30.2747 470.467 43.8853 470.467 44.312C470.467 44.7387 470.211 45.1653 469.699 45.592C468.504 46.5307 466.136 47 462.595 47C455.043 47 451.182 46.104 451.011 44.312L450.563 40.152H444.419L444.099 43.736ZM449.219 27.992L448.259 16.472H446.851L445.763 27.992H449.219ZM493.077 47H479.061C476.928 47 475.498 46.8507 474.773 46.552C474.048 46.2533 473.685 45.784 473.685 45.144V3.992C473.685 1.944 479.85 0.919998 492.181 0.919998C499.264 0.919998 504.149 1.60266 506.837 2.968C509.568 4.376 511.317 6.168 512.085 8.344C512.512 9.624 512.725 11.1173 512.725 12.824C512.725 16.152 512.149 18.648 510.997 20.312C509.888 21.976 508.672 22.9147 507.349 23.128C509.354 23.5547 511.018 24.536 512.341 26.072C513.664 27.608 514.325 30.2107 514.325 33.88C514.325 38.1467 513.024 41.304 510.421 43.352C508.16 45.144 504.704 46.2747 500.053 46.744C498.09 46.9147 495.765 47 493.077 47ZM493.141 19.096C495.317 19.096 496.405 17.6453 496.405 14.744C496.405 13.2933 496.106 12.2267 495.509 11.544C494.954 10.8187 494.314 10.456 493.589 10.456H491.541V19.096H493.141ZM491.541 37.464H493.141C495.317 37.464 496.405 36.0133 496.405 33.112C496.405 31.6613 496.106 30.5947 495.509 29.912C494.954 29.1867 494.314 28.824 493.589 28.824H491.541V37.464ZM524.186 47C522.053 47 520.623 46.8933 519.898 46.68C519.173 46.424 518.81 46.0187 518.81 45.464V5.656C518.81 4.71733 520.047 3.8 522.522 2.904C524.997 1.96533 527.77 1.496 530.842 1.496C533.573 1.496 535.365 2.072 536.218 3.224C536.517 3.65067 536.666 4.07733 536.666 4.504V32.856C541.871 32.5147 545.797 32.344 548.442 32.344C549.338 32.344 549.786 33.7733 549.786 36.632C549.786 39.448 549.594 41.88 549.21 43.928C548.826 45.976 548.314 47 547.674 47H524.186ZM586.071 47H558.935C556.844 47 555.436 46.8507 554.711 46.552C553.985 46.2533 553.623 45.784 553.623 45.144V4.632C553.623 3.52266 554.113 2.73333 555.095 2.264C556.119 1.79466 557.932 1.56 560.535 1.56H586.263C587.159 1.56 587.607 3.05333 587.607 6.04C587.607 8.984 587.415 11.2453 587.031 12.824C586.647 14.36 586.135 15.128 585.495 15.128C582.721 15.128 578.049 14.8507 571.479 14.296V18.584C577.793 18.328 581.911 18.2 583.831 18.2C584.983 18.2 585.559 19.544 585.559 22.232C585.559 24.92 585.324 26.968 584.854 28.376C584.428 29.7413 583.831 30.424 583.062 30.424L571.479 30.168V34.264C578.903 33.7093 584.023 33.432 586.839 33.432C587.735 33.432 588.183 34.9253 588.183 37.912C588.183 40.8987 587.991 43.16 587.607 44.696C587.223 46.232 586.711 47 586.071 47Z" fill="#171717"/>
</svg>
