<svg width="28" height="28" viewBox="0 0 28 28" fill="none" xmlns="http://www.w3.org/2000/svg">
<path d="M13.9998 18.2998L19.7665 12.5332L18.3332 11.1332L13.9998 15.4665L9.6665 11.1332L8.23317 12.5332L13.9998 18.2998ZM13.9998 27.3332C12.1776 27.3332 10.4554 26.9832 8.83317 26.2832C7.21095 25.5832 5.79428 24.6276 4.58317 23.4165C3.37206 22.2054 2.4165 20.7887 1.7165 19.1665C1.0165 17.5443 0.666504 15.8221 0.666504 13.9998C0.666504 12.1554 1.0165 10.4221 1.7165 8.79984C2.4165 7.17761 3.37206 5.7665 4.58317 4.5665C5.79428 3.3665 7.21095 2.4165 8.83317 1.7165C10.4554 1.0165 12.1776 0.666504 13.9998 0.666504C15.8443 0.666504 17.5776 1.0165 19.1998 1.7165C20.8221 2.4165 22.2332 3.3665 23.4332 4.5665C24.6332 5.7665 25.5832 7.17761 26.2832 8.79984C26.9832 10.4221 27.3332 12.1554 27.3332 13.9998C27.3332 15.8221 26.9832 17.5443 26.2832 19.1665C25.5832 20.7887 24.6332 22.2054 23.4332 23.4165C22.2332 24.6276 20.8221 25.5832 19.1998 26.2832C17.5776 26.9832 15.8443 27.3332 13.9998 27.3332Z" fill="black"/>
</svg>
